<?xml version="1.0" encoding="UTF-8"?>
<svg xmlns="http://www.w3.org/2000/svg" viewBox="0 0 359.00 174.00" role="img" aria-labelledby="title">
  <title id="title">PwC logo dotted</title>
  <g fill="#fff">
    <circle cx="279.00" cy="3.00" r="2.16"/>
    <circle cx="285.00" cy="3.00" r="2.76"/>
    <circle cx="291.00" cy="3.00" r="2.76"/>
    <circle cx="297.00" cy="3.00" r="2.76"/>
    <circle cx="303.00" cy="3.00" r="2.76"/>
    <circle cx="309.00" cy="3.00" r="2.76"/>
    <circle cx="315.00" cy="3.00" r="2.76"/>
    <circle cx="321.00" cy="3.00" r="2.76"/>
    <circle cx="327.00" cy="3.00" r="2.76"/>
    <circle cx="333.00" cy="3.00" r="2.76"/>
    <circle cx="339.00" cy="3.00" r="2.52"/>
    <circle cx="345.00" cy="3.00" r="2.76"/>
    <circle cx="351.00" cy="3.00" r="2.76"/>
    <circle cx="357.00" cy="3.00" r="1.50"/>
    <circle cx="273.00" cy="9.00" r="1.50"/>
    <circle cx="279.00" cy="9.00" r="2.76"/>
    <circle cx="285.00" cy="9.00" r="2.76"/>
    <circle cx="291.00" cy="9.00" r="2.76"/>
    <circle cx="297.00" cy="9.00" r="2.76"/>
    <circle cx="303.00" cy="9.00" r="2.76"/>
    <circle cx="309.00" cy="9.00" r="2.52"/>
    <circle cx="315.00" cy="9.00" r="2.76"/>
    <circle cx="321.00" cy="9.00" r="2.76"/>
    <circle cx="327.00" cy="9.00" r="2.76"/>
    <circle cx="333.00" cy="9.00" r="2.76"/>
    <circle cx="339.00" cy="9.00" r="2.76"/>
    <circle cx="345.00" cy="9.00" r="2.76"/>
    <circle cx="351.00" cy="9.00" r="2.52"/>
    <circle cx="273.00" cy="15.00" r="2.76"/>
    <circle cx="279.00" cy="15.00" r="2.76"/>
    <circle cx="285.00" cy="15.00" r="2.76"/>
    <circle cx="291.00" cy="15.00" r="2.76"/>
    <circle cx="297.00" cy="15.00" r="2.52"/>
    <circle cx="303.00" cy="15.00" r="2.76"/>
    <circle cx="309.00" cy="15.00" r="2.76"/>
    <circle cx="315.00" cy="15.00" r="2.52"/>
    <circle cx="321.00" cy="15.00" r="2.52"/>
    <circle cx="327.00" cy="15.00" r="2.76"/>
    <circle cx="333.00" cy="15.00" r="2.76"/>
    <circle cx="339.00" cy="15.00" r="2.76"/>
    <circle cx="345.00" cy="15.00" r="2.76"/>
    <circle cx="351.00" cy="15.00" r="0.90"/>
    <circle cx="189.00" cy="21.00" r="1.20"/>
    <circle cx="195.00" cy="21.00" r="1.20"/>
    <circle cx="201.00" cy="21.00" r="1.50"/>
    <circle cx="207.00" cy="21.00" r="1.20"/>
    <circle cx="213.00" cy="21.00" r="1.50"/>
    <circle cx="219.00" cy="21.00" r="1.20"/>
    <circle cx="225.00" cy="21.00" r="1.50"/>
    <circle cx="231.00" cy="21.00" r="1.20"/>
    <circle cx="237.00" cy="21.00" r="1.50"/>
    <circle cx="243.00" cy="21.00" r="0.90"/>
    <circle cx="249.00" cy="21.00" r="1.20"/>
    <circle cx="255.00" cy="21.00" r="1.20"/>
    <circle cx="261.00" cy="21.00" r="1.20"/>
    <circle cx="267.00" cy="21.00" r="1.20"/>
    <circle cx="273.00" cy="21.00" r="2.52"/>
    <circle cx="279.00" cy="21.00" r="2.16"/>
    <circle cx="285.00" cy="21.00" r="2.16"/>
    <circle cx="291.00" cy="21.00" r="2.76"/>
    <circle cx="297.00" cy="21.00" r="2.52"/>
    <circle cx="303.00" cy="21.00" r="2.52"/>
    <circle cx="309.00" cy="21.00" r="2.52"/>
    <circle cx="315.00" cy="21.00" r="2.76"/>
    <circle cx="321.00" cy="21.00" r="2.76"/>
    <circle cx="327.00" cy="21.00" r="2.52"/>
    <circle cx="333.00" cy="21.00" r="2.16"/>
    <circle cx="339.00" cy="21.00" r="2.76"/>
    <circle cx="345.00" cy="21.00" r="1.86"/>
    <circle cx="183.00" cy="27.00" r="1.20"/>
    <circle cx="189.00" cy="27.00" r="2.76"/>
    <circle cx="195.00" cy="27.00" r="2.52"/>
    <circle cx="201.00" cy="27.00" r="2.76"/>
    <circle cx="207.00" cy="27.00" r="2.76"/>
    <circle cx="213.00" cy="27.00" r="2.76"/>
    <circle cx="219.00" cy="27.00" r="2.76"/>
    <circle cx="225.00" cy="27.00" r="2.52"/>
    <circle cx="231.00" cy="27.00" r="2.76"/>
    <circle cx="237.00" cy="27.00" r="2.76"/>
    <circle cx="243.00" cy="27.00" r="2.76"/>
    <circle cx="249.00" cy="27.00" r="2.76"/>
    <circle cx="255.00" cy="27.00" r="2.76"/>
    <circle cx="261.00" cy="27.00" r="2.76"/>
    <circle cx="183.00" cy="33.00" r="2.52"/>
    <circle cx="189.00" cy="33.00" r="2.76"/>
    <circle cx="195.00" cy="33.00" r="2.76"/>
    <circle cx="201.00" cy="33.00" r="2.76"/>
    <circle cx="207.00" cy="33.00" r="2.76"/>
    <circle cx="213.00" cy="33.00" r="2.76"/>
    <circle cx="219.00" cy="33.00" r="2.76"/>
    <circle cx="225.00" cy="33.00" r="2.76"/>
    <circle cx="231.00" cy="33.00" r="2.76"/>
    <circle cx="237.00" cy="33.00" r="2.76"/>
    <circle cx="243.00" cy="33.00" r="2.76"/>
    <circle cx="249.00" cy="33.00" r="2.76"/>
    <circle cx="255.00" cy="33.00" r="2.76"/>
    <circle cx="261.00" cy="33.00" r="0.90"/>
    <circle cx="177.00" cy="39.00" r="1.86"/>
    <circle cx="183.00" cy="39.00" r="2.76"/>
    <circle cx="189.00" cy="39.00" r="2.76"/>
    <circle cx="195.00" cy="39.00" r="2.76"/>
    <circle cx="201.00" cy="39.00" r="2.52"/>
    <circle cx="207.00" cy="39.00" r="2.76"/>
    <circle cx="213.00" cy="39.00" r="2.76"/>
    <circle cx="219.00" cy="39.00" r="2.52"/>
    <circle cx="225.00" cy="39.00" r="2.76"/>
    <circle cx="231.00" cy="39.00" r="2.76"/>
    <circle cx="237.00" cy="39.00" r="2.76"/>
    <circle cx="243.00" cy="39.00" r="2.76"/>
    <circle cx="249.00" cy="39.00" r="2.76"/>
    <circle cx="255.00" cy="39.00" r="2.16"/>
    <circle cx="177.00" cy="45.00" r="0.90"/>
    <circle cx="183.00" cy="45.00" r="1.50"/>
    <circle cx="189.00" cy="45.00" r="1.20"/>
    <circle cx="195.00" cy="45.00" r="0.90"/>
    <circle cx="201.00" cy="45.00" r="0.90"/>
    <circle cx="207.00" cy="45.00" r="1.50"/>
    <circle cx="213.00" cy="45.00" r="1.50"/>
    <circle cx="219.00" cy="45.00" r="1.20"/>
    <circle cx="225.00" cy="45.00" r="1.50"/>
    <circle cx="231.00" cy="45.00" r="0.90"/>
    <circle cx="237.00" cy="45.00" r="1.50"/>
    <circle cx="243.00" cy="45.00" r="1.20"/>
    <circle cx="249.00" cy="45.00" r="1.50"/>
    <circle cx="27.00" cy="63.00" r="1.20"/>
    <circle cx="33.00" cy="63.00" r="1.50"/>
    <circle cx="57.00" cy="63.00" r="0.66"/>
    <circle cx="63.00" cy="63.00" r="1.20"/>
    <circle cx="69.00" cy="63.00" r="0.90"/>
    <circle cx="123.00" cy="63.00" r="0.66"/>
    <circle cx="129.00" cy="63.00" r="0.42"/>
    <circle cx="165.00" cy="63.00" r="0.90"/>
    <circle cx="171.00" cy="63.00" r="0.90"/>
    <circle cx="201.00" cy="63.00" r="0.66"/>
    <circle cx="207.00" cy="63.00" r="1.86"/>
    <circle cx="213.00" cy="63.00" r="0.90"/>
    <circle cx="255.00" cy="63.00" r="1.20"/>
    <circle cx="261.00" cy="63.00" r="1.86"/>
    <circle cx="267.00" cy="63.00" r="1.86"/>
    <circle cx="273.00" cy="63.00" r="1.20"/>
    <circle cx="9.00" cy="69.00" r="1.50"/>
    <circle cx="15.00" cy="69.00" r="2.16"/>
    <circle cx="21.00" cy="69.00" r="2.76"/>
    <circle cx="27.00" cy="69.00" r="2.76"/>
    <circle cx="33.00" cy="69.00" r="2.76"/>
    <circle cx="45.00" cy="69.00" r="2.16"/>
    <circle cx="51.00" cy="69.00" r="2.76"/>
    <circle cx="57.00" cy="69.00" r="2.52"/>
    <circle cx="63.00" cy="69.00" r="2.76"/>
    <circle cx="69.00" cy="69.00" r="2.76"/>
    <circle cx="75.00" cy="69.00" r="2.52"/>
    <circle cx="99.00" cy="69.00" r="1.20"/>
    <circle cx="105.00" cy="69.00" r="1.86"/>
    <circle cx="111.00" cy="69.00" r="2.76"/>
    <circle cx="117.00" cy="69.00" r="2.76"/>
    <circle cx="123.00" cy="69.00" r="2.76"/>
    <circle cx="129.00" cy="69.00" r="2.52"/>
    <circle cx="159.00" cy="69.00" r="2.52"/>
    <circle cx="165.00" cy="69.00" r="2.76"/>
    <circle cx="171.00" cy="69.00" r="2.76"/>
    <circle cx="177.00" cy="69.00" r="2.76"/>
    <circle cx="195.00" cy="69.00" r="0.42"/>
    <circle cx="201.00" cy="69.00" r="2.76"/>
    <circle cx="207.00" cy="69.00" r="2.76"/>
    <circle cx="213.00" cy="69.00" r="2.76"/>
    <circle cx="219.00" cy="69.00" r="1.50"/>
    <circle cx="237.00" cy="69.00" r="0.90"/>
    <circle cx="243.00" cy="69.00" r="2.52"/>
    <circle cx="249.00" cy="69.00" r="2.76"/>
    <circle cx="255.00" cy="69.00" r="2.52"/>
    <circle cx="261.00" cy="69.00" r="2.76"/>
    <circle cx="267.00" cy="69.00" r="2.76"/>
    <circle cx="273.00" cy="69.00" r="2.76"/>
    <circle cx="279.00" cy="69.00" r="2.76"/>
    <circle cx="285.00" cy="69.00" r="2.52"/>
    <circle cx="3.00" cy="75.00" r="2.76"/>
    <circle cx="9.00" cy="75.00" r="2.76"/>
    <circle cx="15.00" cy="75.00" r="2.76"/>
    <circle cx="21.00" cy="75.00" r="2.76"/>
    <circle cx="27.00" cy="75.00" r="2.76"/>
    <circle cx="33.00" cy="75.00" r="2.76"/>
    <circle cx="39.00" cy="75.00" r="2.76"/>
    <circle cx="45.00" cy="75.00" r="2.76"/>
    <circle cx="51.00" cy="75.00" r="2.76"/>
    <circle cx="57.00" cy="75.00" r="2.76"/>
    <circle cx="63.00" cy="75.00" r="2.76"/>
    <circle cx="69.00" cy="75.00" r="2.76"/>
    <circle cx="75.00" cy="75.00" r="2.76"/>
    <circle cx="81.00" cy="75.00" r="2.52"/>
    <circle cx="93.00" cy="75.00" r="1.50"/>
    <circle cx="99.00" cy="75.00" r="2.76"/>
    <circle cx="105.00" cy="75.00" r="2.52"/>
    <circle cx="111.00" cy="75.00" r="2.76"/>
    <circle cx="117.00" cy="75.00" r="2.76"/>
    <circle cx="123.00" cy="75.00" r="2.76"/>
    <circle cx="129.00" cy="75.00" r="2.52"/>
    <circle cx="153.00" cy="75.00" r="1.20"/>
    <circle cx="159.00" cy="75.00" r="2.76"/>
    <circle cx="165.00" cy="75.00" r="2.76"/>
    <circle cx="171.00" cy="75.00" r="2.76"/>
    <circle cx="177.00" cy="75.00" r="2.52"/>
    <circle cx="195.00" cy="75.00" r="0.90"/>
    <circle cx="201.00" cy="75.00" r="2.52"/>
    <circle cx="207.00" cy="75.00" r="2.52"/>
    <circle cx="213.00" cy="75.00" r="2.76"/>
    <circle cx="219.00" cy="75.00" r="2.76"/>
    <circle cx="231.00" cy="75.00" r="1.20"/>
    <circle cx="237.00" cy="75.00" r="2.76"/>
    <circle cx="243.00" cy="75.00" r="2.76"/>
    <circle cx="249.00" cy="75.00" r="2.76"/>
    <circle cx="255.00" cy="75.00" r="2.76"/>
    <circle cx="261.00" cy="75.00" r="0.66"/>
    <circle cx="267.00" cy="75.00" r="1.20"/>
    <circle cx="273.00" cy="75.00" r="2.76"/>
    <circle cx="279.00" cy="75.00" r="2.76"/>
    <circle cx="285.00" cy="75.00" r="2.76"/>
    <circle cx="291.00" cy="75.00" r="1.86"/>
    <circle cx="3.00" cy="81.00" r="0.90"/>
    <circle cx="9.00" cy="81.00" r="0.90"/>
    <circle cx="15.00" cy="81.00" r="2.76"/>
    <circle cx="21.00" cy="81.00" r="2.76"/>
    <circle cx="27.00" cy="81.00" r="2.76"/>
    <circle cx="33.00" cy="81.00" r="2.76"/>
    <circle cx="39.00" cy="81.00" r="1.20"/>
    <circle cx="45.00" cy="81.00" r="0.66"/>
    <circle cx="51.00" cy="81.00" r="1.86"/>
    <circle cx="57.00" cy="81.00" r="2.76"/>
    <circle cx="63.00" cy="81.00" r="2.76"/>
    <circle cx="69.00" cy="81.00" r="2.76"/>
    <circle cx="75.00" cy="81.00" r="2.76"/>
    <circle cx="81.00" cy="81.00" r="2.76"/>
    <circle cx="87.00" cy="81.00" r="1.50"/>
    <circle cx="99.00" cy="81.00" r="0.66"/>
    <circle cx="105.00" cy="81.00" r="0.90"/>
    <circle cx="111.00" cy="81.00" r="2.52"/>
    <circle cx="117.00" cy="81.00" r="2.76"/>
    <circle cx="123.00" cy="81.00" r="2.76"/>
    <circle cx="129.00" cy="81.00" r="2.76"/>
    <circle cx="153.00" cy="81.00" r="2.76"/>
    <circle cx="159.00" cy="81.00" r="2.76"/>
    <circle cx="165.00" cy="81.00" r="2.76"/>
    <circle cx="171.00" cy="81.00" r="2.52"/>
    <circle cx="177.00" cy="81.00" r="2.76"/>
    <circle cx="195.00" cy="81.00" r="0.42"/>
    <circle cx="201.00" cy="81.00" r="2.76"/>
    <circle cx="207.00" cy="81.00" r="2.76"/>
    <circle cx="213.00" cy="81.00" r="2.76"/>
    <circle cx="219.00" cy="81.00" r="2.16"/>
    <circle cx="225.00" cy="81.00" r="0.66"/>
    <circle cx="231.00" cy="81.00" r="2.76"/>
    <circle cx="237.00" cy="81.00" r="2.76"/>
    <circle cx="243.00" cy="81.00" r="2.76"/>
    <circle cx="249.00" cy="81.00" r="2.76"/>
    <circle cx="255.00" cy="81.00" r="0.66"/>
    <circle cx="267.00" cy="81.00" r="1.50"/>
    <circle cx="273.00" cy="81.00" r="2.76"/>
    <circle cx="279.00" cy="81.00" r="2.76"/>
    <circle cx="285.00" cy="81.00" r="2.76"/>
    <circle cx="291.00" cy="81.00" r="2.76"/>
    <circle cx="15.00" cy="87.00" r="2.76"/>
    <circle cx="21.00" cy="87.00" r="2.52"/>
    <circle cx="27.00" cy="87.00" r="2.76"/>
    <circle cx="33.00" cy="87.00" r="2.52"/>
    <circle cx="63.00" cy="87.00" r="2.76"/>
    <circle cx="69.00" cy="87.00" r="2.52"/>
    <circle cx="75.00" cy="87.00" r="2.76"/>
    <circle cx="81.00" cy="87.00" r="2.76"/>
    <circle cx="87.00" cy="87.00" r="2.76"/>
    <circle cx="111.00" cy="87.00" r="2.76"/>
    <circle cx="117.00" cy="87.00" r="2.52"/>
    <circle cx="123.00" cy="87.00" r="2.76"/>
    <circle cx="129.00" cy="87.00" r="2.76"/>
    <circle cx="147.00" cy="87.00" r="1.50"/>
    <circle cx="153.00" cy="87.00" r="2.76"/>
    <circle cx="159.00" cy="87.00" r="2.76"/>
    <circle cx="165.00" cy="87.00" r="2.76"/>
    <circle cx="171.00" cy="87.00" r="2.76"/>
    <circle cx="177.00" cy="87.00" r="2.52"/>
    <circle cx="195.00" cy="87.00" r="0.66"/>
    <circle cx="201.00" cy="87.00" r="2.52"/>
    <circle cx="207.00" cy="87.00" r="2.76"/>
    <circle cx="213.00" cy="87.00" r="2.52"/>
    <circle cx="219.00" cy="87.00" r="0.42"/>
    <circle cx="225.00" cy="87.00" r="2.16"/>
    <circle cx="231.00" cy="87.00" r="2.52"/>
    <circle cx="237.00" cy="87.00" r="2.76"/>
    <circle cx="243.00" cy="87.00" r="2.76"/>
    <circle cx="249.00" cy="87.00" r="2.76"/>
    <circle cx="267.00" cy="87.00" r="1.50"/>
    <circle cx="273.00" cy="87.00" r="2.52"/>
    <circle cx="279.00" cy="87.00" r="2.76"/>
    <circle cx="285.00" cy="87.00" r="2.76"/>
    <circle cx="291.00" cy="87.00" r="2.76"/>
    <circle cx="15.00" cy="93.00" r="2.76"/>
    <circle cx="21.00" cy="93.00" r="2.76"/>
    <circle cx="27.00" cy="93.00" r="2.76"/>
    <circle cx="33.00" cy="93.00" r="2.76"/>
    <circle cx="63.00" cy="93.00" r="1.50"/>
    <circle cx="69.00" cy="93.00" r="2.76"/>
    <circle cx="75.00" cy="93.00" r="2.76"/>
    <circle cx="81.00" cy="93.00" r="2.76"/>
    <circle cx="87.00" cy="93.00" r="2.76"/>
    <circle cx="111.00" cy="93.00" r="2.76"/>
    <circle cx="117.00" cy="93.00" r="2.76"/>
    <circle cx="123.00" cy="93.00" r="2.76"/>
    <circle cx="129.00" cy="93.00" r="2.52"/>
    <circle cx="141.00" cy="93.00" r="0.90"/>
    <circle cx="147.00" cy="93.00" r="2.76"/>
    <circle cx="153.00" cy="93.00" r="2.76"/>
    <circle cx="159.00" cy="93.00" r="2.52"/>
    <circle cx="165.00" cy="93.00" r="2.76"/>
    <circle cx="171.00" cy="93.00" r="2.76"/>
    <circle cx="177.00" cy="93.00" r="2.52"/>
    <circle cx="195.00" cy="93.00" r="0.42"/>
    <circle cx="201.00" cy="93.00" r="2.76"/>
    <circle cx="207.00" cy="93.00" r="2.76"/>
    <circle cx="213.00" cy="93.00" r="1.86"/>
    <circle cx="225.00" cy="93.00" r="2.76"/>
    <circle cx="231.00" cy="93.00" r="2.76"/>
    <circle cx="237.00" cy="93.00" r="2.76"/>
    <circle cx="243.00" cy="93.00" r="2.76"/>
    <circle cx="249.00" cy="93.00" r="1.50"/>
    <circle cx="273.00" cy="93.00" r="2.16"/>
    <circle cx="279.00" cy="93.00" r="2.52"/>
    <circle cx="285.00" cy="93.00" r="2.76"/>
    <circle cx="291.00" cy="93.00" r="0.90"/>
    <circle cx="15.00" cy="99.00" r="2.76"/>
    <circle cx="21.00" cy="99.00" r="2.76"/>
    <circle cx="27.00" cy="99.00" r="2.76"/>
    <circle cx="33.00" cy="99.00" r="2.52"/>
    <circle cx="63.00" cy="99.00" r="1.20"/>
    <circle cx="69.00" cy="99.00" r="2.76"/>
    <circle cx="75.00" cy="99.00" r="2.76"/>
    <circle cx="81.00" cy="99.00" r="2.76"/>
    <circle cx="87.00" cy="99.00" r="2.76"/>
    <circle cx="93.00" cy="99.00" r="0.66"/>
    <circle cx="111.00" cy="99.00" r="2.76"/>
    <circle cx="117.00" cy="99.00" r="2.76"/>
    <circle cx="123.00" cy="99.00" r="2.52"/>
    <circle cx="129.00" cy="99.00" r="2.16"/>
    <circle cx="141.00" cy="99.00" r="2.76"/>
    <circle cx="147.00" cy="99.00" r="2.76"/>
    <circle cx="153.00" cy="99.00" r="1.50"/>
    <circle cx="159.00" cy="99.00" r="2.76"/>
    <circle cx="165.00" cy="99.00" r="2.76"/>
    <circle cx="171.00" cy="99.00" r="2.52"/>
    <circle cx="177.00" cy="99.00" r="2.76"/>
    <circle cx="195.00" cy="99.00" r="1.50"/>
    <circle cx="201.00" cy="99.00" r="2.52"/>
    <circle cx="207.00" cy="99.00" r="1.86"/>
    <circle cx="219.00" cy="99.00" r="0.66"/>
    <circle cx="225.00" cy="99.00" r="2.76"/>
    <circle cx="231.00" cy="99.00" r="2.76"/>
    <circle cx="237.00" cy="99.00" r="2.76"/>
    <circle cx="243.00" cy="99.00" r="2.76"/>
    <circle cx="249.00" cy="99.00" r="1.50"/>
    <circle cx="15.00" cy="105.00" r="2.76"/>
    <circle cx="21.00" cy="105.00" r="2.52"/>
    <circle cx="27.00" cy="105.00" r="2.76"/>
    <circle cx="33.00" cy="105.00" r="2.76"/>
    <circle cx="63.00" cy="105.00" r="1.50"/>
    <circle cx="69.00" cy="105.00" r="2.76"/>
    <circle cx="75.00" cy="105.00" r="2.76"/>
    <circle cx="81.00" cy="105.00" r="2.76"/>
    <circle cx="87.00" cy="105.00" r="2.76"/>
    <circle cx="111.00" cy="105.00" r="2.76"/>
    <circle cx="117.00" cy="105.00" r="2.76"/>
    <circle cx="123.00" cy="105.00" r="2.76"/>
    <circle cx="129.00" cy="105.00" r="2.76"/>
    <circle cx="135.00" cy="105.00" r="1.20"/>
    <circle cx="141.00" cy="105.00" r="2.76"/>
    <circle cx="147.00" cy="105.00" r="2.16"/>
    <circle cx="153.00" cy="105.00" r="0.42"/>
    <circle cx="159.00" cy="105.00" r="2.76"/>
    <circle cx="165.00" cy="105.00" r="2.76"/>
    <circle cx="171.00" cy="105.00" r="2.52"/>
    <circle cx="177.00" cy="105.00" r="2.52"/>
    <circle cx="189.00" cy="105.00" r="1.20"/>
    <circle cx="195.00" cy="105.00" r="2.76"/>
    <circle cx="201.00" cy="105.00" r="2.76"/>
    <circle cx="219.00" cy="105.00" r="0.42"/>
    <circle cx="225.00" cy="105.00" r="2.52"/>
    <circle cx="231.00" cy="105.00" r="2.76"/>
    <circle cx="237.00" cy="105.00" r="2.76"/>
    <circle cx="243.00" cy="105.00" r="2.76"/>
    <circle cx="249.00" cy="105.00" r="1.50"/>
    <circle cx="15.00" cy="111.00" r="2.76"/>
    <circle cx="21.00" cy="111.00" r="2.52"/>
    <circle cx="27.00" cy="111.00" r="2.76"/>
    <circle cx="33.00" cy="111.00" r="2.76"/>
    <circle cx="63.00" cy="111.00" r="1.50"/>
    <circle cx="69.00" cy="111.00" r="2.76"/>
    <circle cx="75.00" cy="111.00" r="2.76"/>
    <circle cx="81.00" cy="111.00" r="2.76"/>
    <circle cx="87.00" cy="111.00" r="2.76"/>
    <circle cx="111.00" cy="111.00" r="2.76"/>
    <circle cx="117.00" cy="111.00" r="2.76"/>
    <circle cx="123.00" cy="111.00" r="2.52"/>
    <circle cx="129.00" cy="111.00" r="2.52"/>
    <circle cx="135.00" cy="111.00" r="2.76"/>
    <circle cx="141.00" cy="111.00" r="2.76"/>
    <circle cx="153.00" cy="111.00" r="0.90"/>
    <circle cx="159.00" cy="111.00" r="2.76"/>
    <circle cx="165.00" cy="111.00" r="2.52"/>
    <circle cx="171.00" cy="111.00" r="2.76"/>
    <circle cx="177.00" cy="111.00" r="2.76"/>
    <circle cx="189.00" cy="111.00" r="2.76"/>
    <circle cx="195.00" cy="111.00" r="2.52"/>
    <circle cx="201.00" cy="111.00" r="0.66"/>
    <circle cx="225.00" cy="111.00" r="2.76"/>
    <circle cx="231.00" cy="111.00" r="2.76"/>
    <circle cx="237.00" cy="111.00" r="2.76"/>
    <circle cx="243.00" cy="111.00" r="2.76"/>
    <circle cx="249.00" cy="111.00" r="2.16"/>
    <circle cx="15.00" cy="117.00" r="2.76"/>
    <circle cx="21.00" cy="117.00" r="2.52"/>
    <circle cx="27.00" cy="117.00" r="2.76"/>
    <circle cx="33.00" cy="117.00" r="2.76"/>
    <circle cx="63.00" cy="117.00" r="2.16"/>
    <circle cx="69.00" cy="117.00" r="2.76"/>
    <circle cx="75.00" cy="117.00" r="2.76"/>
    <circle cx="81.00" cy="117.00" r="2.76"/>
    <circle cx="87.00" cy="117.00" r="1.86"/>
    <circle cx="111.00" cy="117.00" r="2.52"/>
    <circle cx="117.00" cy="117.00" r="2.76"/>
    <circle cx="123.00" cy="117.00" r="2.76"/>
    <circle cx="129.00" cy="117.00" r="2.52"/>
    <circle cx="135.00" cy="117.00" r="2.52"/>
    <circle cx="141.00" cy="117.00" r="1.86"/>
    <circle cx="153.00" cy="117.00" r="0.90"/>
    <circle cx="159.00" cy="117.00" r="2.76"/>
    <circle cx="165.00" cy="117.00" r="2.52"/>
    <circle cx="171.00" cy="117.00" r="2.76"/>
    <circle cx="177.00" cy="117.00" r="2.52"/>
    <circle cx="183.00" cy="117.00" r="2.16"/>
    <circle cx="189.00" cy="117.00" r="2.76"/>
    <circle cx="195.00" cy="117.00" r="1.50"/>
    <circle cx="225.00" cy="117.00" r="2.76"/>
    <circle cx="231.00" cy="117.00" r="2.76"/>
    <circle cx="237.00" cy="117.00" r="2.76"/>
    <circle cx="243.00" cy="117.00" r="2.76"/>
    <circle cx="249.00" cy="117.00" r="2.76"/>
    <circle cx="255.00" cy="117.00" r="0.42"/>
    <circle cx="15.00" cy="123.00" r="2.76"/>
    <circle cx="21.00" cy="123.00" r="2.76"/>
    <circle cx="27.00" cy="123.00" r="2.76"/>
    <circle cx="33.00" cy="123.00" r="2.76"/>
    <circle cx="57.00" cy="123.00" r="0.66"/>
    <circle cx="63.00" cy="123.00" r="2.76"/>
    <circle cx="69.00" cy="123.00" r="2.76"/>
    <circle cx="75.00" cy="123.00" r="2.76"/>
    <circle cx="81.00" cy="123.00" r="2.76"/>
    <circle cx="111.00" cy="123.00" r="2.76"/>
    <circle cx="117.00" cy="123.00" r="2.76"/>
    <circle cx="123.00" cy="123.00" r="2.76"/>
    <circle cx="129.00" cy="123.00" r="2.76"/>
    <circle cx="135.00" cy="123.00" r="2.76"/>
    <circle cx="153.00" cy="123.00" r="0.90"/>
    <circle cx="159.00" cy="123.00" r="2.76"/>
    <circle cx="165.00" cy="123.00" r="2.52"/>
    <circle cx="171.00" cy="123.00" r="2.76"/>
    <circle cx="177.00" cy="123.00" r="2.76"/>
    <circle cx="183.00" cy="123.00" r="2.76"/>
    <circle cx="189.00" cy="123.00" r="1.86"/>
    <circle cx="225.00" cy="123.00" r="0.90"/>
    <circle cx="231.00" cy="123.00" r="2.76"/>
    <circle cx="237.00" cy="123.00" r="2.76"/>
    <circle cx="243.00" cy="123.00" r="2.76"/>
    <circle cx="249.00" cy="123.00" r="2.76"/>
    <circle cx="255.00" cy="123.00" r="2.76"/>
    <circle cx="261.00" cy="123.00" r="0.66"/>
    <circle cx="285.00" cy="123.00" r="1.50"/>
    <circle cx="291.00" cy="123.00" r="2.76"/>
    <circle cx="15.00" cy="129.00" r="2.76"/>
    <circle cx="21.00" cy="129.00" r="2.76"/>
    <circle cx="27.00" cy="129.00" r="2.76"/>
    <circle cx="33.00" cy="129.00" r="2.76"/>
    <circle cx="39.00" cy="129.00" r="0.66"/>
    <circle cx="45.00" cy="129.00" r="1.20"/>
    <circle cx="51.00" cy="129.00" r="1.50"/>
    <circle cx="57.00" cy="129.00" r="2.76"/>
    <circle cx="63.00" cy="129.00" r="2.76"/>
    <circle cx="69.00" cy="129.00" r="2.76"/>
    <circle cx="75.00" cy="129.00" r="2.76"/>
    <circle cx="81.00" cy="129.00" r="0.90"/>
    <circle cx="111.00" cy="129.00" r="2.76"/>
    <circle cx="117.00" cy="129.00" r="2.52"/>
    <circle cx="123.00" cy="129.00" r="2.76"/>
    <circle cx="129.00" cy="129.00" r="2.76"/>
    <circle cx="135.00" cy="129.00" r="0.66"/>
    <circle cx="153.00" cy="129.00" r="0.90"/>
    <circle cx="159.00" cy="129.00" r="2.76"/>
    <circle cx="165.00" cy="129.00" r="2.52"/>
    <circle cx="171.00" cy="129.00" r="2.76"/>
    <circle cx="177.00" cy="129.00" r="2.76"/>
    <circle cx="183.00" cy="129.00" r="2.76"/>
    <circle cx="231.00" cy="129.00" r="1.50"/>
    <circle cx="237.00" cy="129.00" r="2.76"/>
    <circle cx="243.00" cy="129.00" r="2.76"/>
    <circle cx="249.00" cy="129.00" r="2.76"/>
    <circle cx="255.00" cy="129.00" r="2.76"/>
    <circle cx="261.00" cy="129.00" r="2.76"/>
    <circle cx="267.00" cy="129.00" r="2.76"/>
    <circle cx="273.00" cy="129.00" r="2.52"/>
    <circle cx="279.00" cy="129.00" r="2.76"/>
    <circle cx="285.00" cy="129.00" r="2.76"/>
    <circle cx="291.00" cy="129.00" r="2.76"/>
    <circle cx="15.00" cy="135.00" r="2.76"/>
    <circle cx="21.00" cy="135.00" r="2.76"/>
    <circle cx="27.00" cy="135.00" r="2.76"/>
    <circle cx="33.00" cy="135.00" r="2.76"/>
    <circle cx="39.00" cy="135.00" r="2.76"/>
    <circle cx="45.00" cy="135.00" r="2.76"/>
    <circle cx="51.00" cy="135.00" r="2.76"/>
    <circle cx="57.00" cy="135.00" r="2.76"/>
    <circle cx="63.00" cy="135.00" r="2.76"/>
    <circle cx="69.00" cy="135.00" r="2.16"/>
    <circle cx="111.00" cy="135.00" r="2.52"/>
    <circle cx="117.00" cy="135.00" r="2.76"/>
    <circle cx="123.00" cy="135.00" r="2.76"/>
    <circle cx="129.00" cy="135.00" r="2.16"/>
    <circle cx="153.00" cy="135.00" r="0.42"/>
    <circle cx="159.00" cy="135.00" r="2.76"/>
    <circle cx="165.00" cy="135.00" r="2.76"/>
    <circle cx="171.00" cy="135.00" r="2.76"/>
    <circle cx="177.00" cy="135.00" r="2.76"/>
    <circle cx="237.00" cy="135.00" r="1.86"/>
    <circle cx="243.00" cy="135.00" r="2.76"/>
    <circle cx="249.00" cy="135.00" r="2.76"/>
    <circle cx="255.00" cy="135.00" r="2.76"/>
    <circle cx="261.00" cy="135.00" r="2.76"/>
    <circle cx="267.00" cy="135.00" r="2.76"/>
    <circle cx="273.00" cy="135.00" r="2.76"/>
    <circle cx="279.00" cy="135.00" r="2.76"/>
    <circle cx="285.00" cy="135.00" r="2.76"/>
    <circle cx="291.00" cy="135.00" r="1.20"/>
    <circle cx="15.00" cy="141.00" r="2.52"/>
    <circle cx="21.00" cy="141.00" r="2.76"/>
    <circle cx="27.00" cy="141.00" r="2.76"/>
    <circle cx="33.00" cy="141.00" r="2.52"/>
    <circle cx="39.00" cy="141.00" r="1.20"/>
    <circle cx="45.00" cy="141.00" r="1.20"/>
    <circle cx="51.00" cy="141.00" r="1.20"/>
    <circle cx="57.00" cy="141.00" r="0.90"/>
    <circle cx="111.00" cy="141.00" r="1.20"/>
    <circle cx="117.00" cy="141.00" r="1.20"/>
    <circle cx="123.00" cy="141.00" r="1.50"/>
    <circle cx="159.00" cy="141.00" r="0.90"/>
    <circle cx="165.00" cy="141.00" r="1.20"/>
    <circle cx="171.00" cy="141.00" r="0.90"/>
    <circle cx="177.00" cy="141.00" r="0.66"/>
    <circle cx="249.00" cy="141.00" r="1.20"/>
    <circle cx="255.00" cy="141.00" r="1.86"/>
    <circle cx="261.00" cy="141.00" r="2.16"/>
    <circle cx="267.00" cy="141.00" r="1.86"/>
    <circle cx="273.00" cy="141.00" r="1.50"/>
    <circle cx="15.00" cy="147.00" r="2.52"/>
    <circle cx="21.00" cy="147.00" r="2.76"/>
    <circle cx="27.00" cy="147.00" r="2.76"/>
    <circle cx="33.00" cy="147.00" r="2.76"/>
    <circle cx="15.00" cy="153.00" r="2.52"/>
    <circle cx="21.00" cy="153.00" r="2.76"/>
    <circle cx="27.00" cy="153.00" r="2.76"/>
    <circle cx="33.00" cy="153.00" r="2.76"/>
    <circle cx="15.00" cy="159.00" r="2.76"/>
    <circle cx="21.00" cy="159.00" r="2.76"/>
    <circle cx="27.00" cy="159.00" r="2.76"/>
    <circle cx="33.00" cy="159.00" r="2.52"/>
    <circle cx="3.00" cy="165.00" r="1.20"/>
    <circle cx="9.00" cy="165.00" r="1.86"/>
    <circle cx="15.00" cy="165.00" r="2.52"/>
    <circle cx="21.00" cy="165.00" r="2.76"/>
    <circle cx="27.00" cy="165.00" r="2.76"/>
    <circle cx="33.00" cy="165.00" r="2.52"/>
    <circle cx="39.00" cy="165.00" r="1.86"/>
    <circle cx="45.00" cy="165.00" r="1.86"/>
    <circle cx="3.00" cy="171.00" r="2.76"/>
    <circle cx="9.00" cy="171.00" r="2.52"/>
    <circle cx="15.00" cy="171.00" r="2.76"/>
    <circle cx="21.00" cy="171.00" r="2.76"/>
    <circle cx="27.00" cy="171.00" r="2.76"/>
    <circle cx="33.00" cy="171.00" r="2.76"/>
    <circle cx="39.00" cy="171.00" r="2.76"/>
    <circle cx="45.00" cy="171.00" r="2.76"/>
    <circle cx="51.00" cy="171.00" r="0.90"/>
  </g>
</svg>
