<?xml version="1.0" encoding="UTF-8"?>
<svg id="Layer_2" data-name="Layer 2" xmlns="http://www.w3.org/2000/svg" viewBox="0 0 359.39 173.84">
  <defs>
    <style>
      .cls-1 {
        fill: #fff;
      }
    </style>
  </defs>
  <g id="Layer_1-2" data-name="Layer 1">
    <g>
      <path class="cls-1" d="M187.21,22.14l-12.3,22.13h78.7s13.13-22.13,13.13-22.13h0s-79.54,0-79.54,0Z"/>
      <path class="cls-1" d="M279.86,0l-12.3,22.13h78.7S359.39,0,359.39,0h0s-79.54,0-79.54,0Z"/>
      <g>
        <path class="cls-1" d="M268.24,71.68c-12.56,2.23-19.26,11.72-19.26,28.19s8.93,27.91,22.05,27.91c6.42,0,12-2.23,23.73-8.09v13.68c-14.24,6.7-22.61,8.37-33.77,8.37-12.56,0-21.49-3.07-28.47-10.61-7.26-7.26-11.17-16.75-11.17-27.63,0-23.73,17.86-40.19,43.82-40.19,17.03,0,29.03,8.09,29.03,19.54,0,7.54-5.58,12.84-13.68,12.84-4.19,0-7.54-1.4-12.28-3.91"/>
        <path class="cls-1" d="M205.44,103.5c11.44-14.24,15.63-20.1,15.63-27.08s-5.58-13.12-13.4-13.12c-4.47,0-8.65,2.51-10.61,4.75v29.31l-18.7,25.12v-56.94h-17.86l-29.59,48.85v-48.85h-10.05l-27.08,6.14v6.98l14.79,1.4v60.57h18.7l28.47-46.89v46.89h20.93"/>
        <path class="cls-1" d="M37.12,131.13h4.19c15.07,0,23.45-9.21,23.45-27.63,0-15.35-6.7-23.73-19.26-23.73-1.67,0-4.19.28-8.37,1.12v50.24ZM37.12,164.07l12.28,2.79v6.98H1.12v-6.98l11.17-2.79v-84.3H0v-6.98l29.31-8.93h7.82v10.05c13.68-8.37,18.42-9.77,25.68-9.77,16.19,0,28.47,15.07,28.47,36.01,0,24-16.47,40.47-41.59,40.47-2.79,0-7.54-.28-12.56-.56"/>
      </g>
    </g>
  </g>
</svg>