<?xml version="1.0" encoding="UTF-8"?>
<svg id="Layer_2" data-name="Layer 2" xmlns="http://www.w3.org/2000/svg" viewBox="0 0 390.36 497.08">
  <defs>
    <style>
      .cls-1 {
        fill: #fff;
      }
    </style>
  </defs>
  <g id="Layer_1-2" data-name="Layer 1">
    <g>
      <path class="cls-1" d="M196.25,322.47c-71.24,0-129.05-57.72-129.05-128.97S125.01,64.44,196.25,64.44s129.04,57.68,129.04,129.06c0,71.25-57.74,128.97-129.04,128.97M196.25,0C89.46,0,2.85,86.62,2.85,193.5s86.6,193.39,193.4,193.39,193.58-86.6,193.58-193.39S303.09,0,196.25,0Z"/>
      <path class="cls-1" d="M196.25,127.19c-36.61,0-66.27,29.59-66.27,66.31s29.66,66.27,66.27,66.27,66.37-29.68,66.37-66.27-29.73-66.31-66.37-66.31"/>
      <polyline class="cls-1" points="21.33 437.36 0 437.36 0 424.19 58.31 424.19 58.31 437.36 36.98 437.36 36.98 495.37 21.33 495.37 21.33 437.36"/>
      <path class="cls-1" d="M51.54,495.37h15.84l5.59-15.85h26.62l5.39,15.85h16.25l-26.62-71.18h-16.05l-27.01,71.18M86.33,441.73h.2l8.97,26.12h-18.43l9.26-26.12Z"/>
      <path class="cls-1" d="M127.39,495.37h15.66v-27.81h15.64c7.88,0,10.77,3.29,11.86,10.76.81,5.68.6,12.56,2.5,17.05h15.64c-2.79-3.99-2.68-12.37-2.99-16.85-.5-7.19-2.68-14.66-10.37-16.65v-.2c7.88-3.19,11.27-9.46,11.27-17.85,0-10.76-8.08-19.63-20.84-19.63h-38.38v71.18M143.05,436.35h17.15c6.97,0,10.76,2.99,10.76,9.86s-3.79,10.17-10.76,10.17h-17.15v-20.03Z"/>
      <path class="cls-1" d="M248.8,487.29c-5.49,7.09-12.65,9.79-19.54,9.79-22.03,0-34.99-16.47-34.99-37.01s12.96-37.56,34.99-37.56c14.55,0,28.31,8.97,30.01,25.11h-14.96c-1.8-7.88-7.68-11.95-15.05-11.95-14.06,0-19.35,11.95-19.35,24.41s5.29,23.83,19.35,23.83c10.17,0,16.04-5.48,16.94-15.35h-15.74v-11.65h29.9v38.48h-9.98l-1.59-8.08"/>
      <polyline class="cls-1" points="271.03 424.19 324.25 424.19 324.25 437.36 286.68 437.36 286.68 452.6 321.17 452.6 321.17 464.78 286.68 464.78 286.68 482.21 325.06 482.21 325.06 495.37 271.03 495.37 271.03 424.19"/>
      <polyline class="cls-1" points="353.37 437.36 332.03 437.36 332.03 424.19 390.36 424.19 390.36 437.36 369.01 437.36 369.01 495.37 353.37 495.37 353.37 437.36"/>
    </g>
  </g>
</svg>