<?xml version="1.0" encoding="UTF-8"?>
<svg xmlns="http://www.w3.org/2000/svg" viewBox="0 0 590.00 145.00" role="img" aria-labelledby="title">
  <title id="title">Brand Oracle full lockup dotted</title>
  <g fill="#fff">
    <circle cx="2.50" cy="2.50" r="1.00"/>
    <circle cx="7.50" cy="2.50" r="2.10"/>
    <circle cx="12.50" cy="2.50" r="2.30"/>
    <circle cx="17.50" cy="2.50" r="2.30"/>
    <circle cx="22.50" cy="2.50" r="1.80"/>
    <circle cx="2.50" cy="7.50" r="2.30"/>
    <circle cx="7.50" cy="7.50" r="2.30"/>
    <circle cx="12.50" cy="7.50" r="2.30"/>
    <circle cx="17.50" cy="7.50" r="2.30"/>
    <circle cx="22.50" cy="7.50" r="2.30"/>
    <circle cx="27.50" cy="7.50" r="1.25"/>
    <circle cx="2.50" cy="12.50" r="2.10"/>
    <circle cx="7.50" cy="12.50" r="2.30"/>
    <circle cx="12.50" cy="12.50" r="2.30"/>
    <circle cx="17.50" cy="12.50" r="2.30"/>
    <circle cx="22.50" cy="12.50" r="2.30"/>
    <circle cx="27.50" cy="12.50" r="2.30"/>
    <circle cx="2.50" cy="17.50" r="2.10"/>
    <circle cx="7.50" cy="17.50" r="2.10"/>
    <circle cx="12.50" cy="17.50" r="2.30"/>
    <circle cx="17.50" cy="17.50" r="2.30"/>
    <circle cx="22.50" cy="17.50" r="2.30"/>
    <circle cx="27.50" cy="17.50" r="1.80"/>
    <circle cx="2.50" cy="22.50" r="1.25"/>
    <circle cx="7.50" cy="22.50" r="2.30"/>
    <circle cx="12.50" cy="22.50" r="2.30"/>
    <circle cx="17.50" cy="22.50" r="2.30"/>
    <circle cx="22.50" cy="22.50" r="2.30"/>
    <circle cx="27.50" cy="22.50" r="0.75"/>
    <circle cx="7.50" cy="27.50" r="1.25"/>
    <circle cx="12.50" cy="27.50" r="2.10"/>
    <circle cx="17.50" cy="27.50" r="1.55"/>
    <circle cx="22.50" cy="27.50" r="0.55"/>
    <circle cx="37.50" cy="27.50" r="1.25"/>
    <circle cx="42.50" cy="27.50" r="1.55"/>
    <circle cx="47.50" cy="27.50" r="0.75"/>
    <circle cx="67.50" cy="27.50" r="1.00"/>
    <circle cx="72.50" cy="27.50" r="1.55"/>
    <circle cx="77.50" cy="27.50" r="1.00"/>
    <circle cx="32.50" cy="32.50" r="1.80"/>
    <circle cx="37.50" cy="32.50" r="2.30"/>
    <circle cx="42.50" cy="32.50" r="2.30"/>
    <circle cx="47.50" cy="32.50" r="2.30"/>
    <circle cx="52.50" cy="32.50" r="2.10"/>
    <circle cx="57.50" cy="32.50" r="0.75"/>
    <circle cx="62.50" cy="32.50" r="2.10"/>
    <circle cx="67.50" cy="32.50" r="2.10"/>
    <circle cx="72.50" cy="32.50" r="2.30"/>
    <circle cx="77.50" cy="32.50" r="2.30"/>
    <circle cx="82.50" cy="32.50" r="1.55"/>
    <circle cx="27.50" cy="37.50" r="0.75"/>
    <circle cx="32.50" cy="37.50" r="2.30"/>
    <circle cx="37.50" cy="37.50" r="2.30"/>
    <circle cx="42.50" cy="37.50" r="2.30"/>
    <circle cx="47.50" cy="37.50" r="2.10"/>
    <circle cx="52.50" cy="37.50" r="2.30"/>
    <circle cx="57.50" cy="37.50" r="2.10"/>
    <circle cx="62.50" cy="37.50" r="2.30"/>
    <circle cx="67.50" cy="37.50" r="2.30"/>
    <circle cx="72.50" cy="37.50" r="2.30"/>
    <circle cx="77.50" cy="37.50" r="2.10"/>
    <circle cx="82.50" cy="37.50" r="2.30"/>
    <circle cx="87.50" cy="37.50" r="0.75"/>
    <circle cx="27.50" cy="42.50" r="1.25"/>
    <circle cx="32.50" cy="42.50" r="2.10"/>
    <circle cx="37.50" cy="42.50" r="2.10"/>
    <circle cx="42.50" cy="42.50" r="2.30"/>
    <circle cx="47.50" cy="42.50" r="2.10"/>
    <circle cx="52.50" cy="42.50" r="2.10"/>
    <circle cx="57.50" cy="42.50" r="2.30"/>
    <circle cx="62.50" cy="42.50" r="2.30"/>
    <circle cx="67.50" cy="42.50" r="2.30"/>
    <circle cx="72.50" cy="42.50" r="2.30"/>
    <circle cx="77.50" cy="42.50" r="2.30"/>
    <circle cx="82.50" cy="42.50" r="2.10"/>
    <circle cx="87.50" cy="42.50" r="1.00"/>
    <circle cx="27.50" cy="47.50" r="0.55"/>
    <circle cx="32.50" cy="47.50" r="2.10"/>
    <circle cx="37.50" cy="47.50" r="2.30"/>
    <circle cx="42.50" cy="47.50" r="2.30"/>
    <circle cx="47.50" cy="47.50" r="2.10"/>
    <circle cx="52.50" cy="47.50" r="2.30"/>
    <circle cx="57.50" cy="47.50" r="2.10"/>
    <circle cx="62.50" cy="47.50" r="2.30"/>
    <circle cx="67.50" cy="47.50" r="2.30"/>
    <circle cx="72.50" cy="47.50" r="2.30"/>
    <circle cx="77.50" cy="47.50" r="2.30"/>
    <circle cx="82.50" cy="47.50" r="2.10"/>
    <circle cx="87.50" cy="47.50" r="0.55"/>
    <circle cx="32.50" cy="52.50" r="1.55"/>
    <circle cx="37.50" cy="52.50" r="2.30"/>
    <circle cx="42.50" cy="52.50" r="2.30"/>
    <circle cx="47.50" cy="52.50" r="2.30"/>
    <circle cx="52.50" cy="52.50" r="1.55"/>
    <circle cx="62.50" cy="52.50" r="1.80"/>
    <circle cx="67.50" cy="52.50" r="2.30"/>
    <circle cx="72.50" cy="52.50" r="2.30"/>
    <circle cx="77.50" cy="52.50" r="2.30"/>
    <circle cx="82.50" cy="52.50" r="1.25"/>
    <circle cx="7.50" cy="57.50" r="1.25"/>
    <circle cx="12.50" cy="57.50" r="2.10"/>
    <circle cx="17.50" cy="57.50" r="1.25"/>
    <circle cx="22.50" cy="57.50" r="0.55"/>
    <circle cx="37.50" cy="57.50" r="1.00"/>
    <circle cx="42.50" cy="57.50" r="1.25"/>
    <circle cx="47.50" cy="57.50" r="1.00"/>
    <circle cx="67.50" cy="57.50" r="0.75"/>
    <circle cx="72.50" cy="57.50" r="1.25"/>
    <circle cx="77.50" cy="57.50" r="1.00"/>
    <circle cx="92.50" cy="57.50" r="1.25"/>
    <circle cx="97.50" cy="57.50" r="1.55"/>
    <circle cx="102.50" cy="57.50" r="1.55"/>
    <circle cx="107.50" cy="57.50" r="1.25"/>
    <circle cx="162.50" cy="57.50" r="1.55"/>
    <circle cx="167.50" cy="57.50" r="1.55"/>
    <circle cx="172.50" cy="57.50" r="1.55"/>
    <circle cx="177.50" cy="57.50" r="1.80"/>
    <circle cx="182.50" cy="57.50" r="1.55"/>
    <circle cx="187.50" cy="57.50" r="1.25"/>
    <circle cx="192.50" cy="57.50" r="0.55"/>
    <circle cx="337.50" cy="57.50" r="1.00"/>
    <circle cx="342.50" cy="57.50" r="1.25"/>
    <circle cx="382.50" cy="57.50" r="1.00"/>
    <circle cx="387.50" cy="57.50" r="1.55"/>
    <circle cx="392.50" cy="57.50" r="2.10"/>
    <circle cx="397.50" cy="57.50" r="1.80"/>
    <circle cx="402.50" cy="57.50" r="1.25"/>
    <circle cx="527.50" cy="57.50" r="1.25"/>
    <circle cx="532.50" cy="57.50" r="1.00"/>
    <circle cx="577.50" cy="57.50" r="1.25"/>
    <circle cx="582.50" cy="57.50" r="1.00"/>
    <circle cx="587.50" cy="57.50" r="0.75"/>
    <circle cx="2.50" cy="62.50" r="1.55"/>
    <circle cx="7.50" cy="62.50" r="2.30"/>
    <circle cx="12.50" cy="62.50" r="2.10"/>
    <circle cx="17.50" cy="62.50" r="2.30"/>
    <circle cx="22.50" cy="62.50" r="2.30"/>
    <circle cx="27.50" cy="62.50" r="0.75"/>
    <circle cx="87.50" cy="62.50" r="1.00"/>
    <circle cx="92.50" cy="62.50" r="2.30"/>
    <circle cx="97.50" cy="62.50" r="2.30"/>
    <circle cx="102.50" cy="62.50" r="2.30"/>
    <circle cx="107.50" cy="62.50" r="2.10"/>
    <circle cx="112.50" cy="62.50" r="1.25"/>
    <circle cx="157.50" cy="62.50" r="0.55"/>
    <circle cx="162.50" cy="62.50" r="2.30"/>
    <circle cx="167.50" cy="62.50" r="1.55"/>
    <circle cx="172.50" cy="62.50" r="1.25"/>
    <circle cx="177.50" cy="62.50" r="1.55"/>
    <circle cx="182.50" cy="62.50" r="1.55"/>
    <circle cx="187.50" cy="62.50" r="1.80"/>
    <circle cx="192.50" cy="62.50" r="2.30"/>
    <circle cx="197.50" cy="62.50" r="1.25"/>
    <circle cx="337.50" cy="62.50" r="1.25"/>
    <circle cx="342.50" cy="62.50" r="1.55"/>
    <circle cx="377.50" cy="62.50" r="2.10"/>
    <circle cx="382.50" cy="62.50" r="2.30"/>
    <circle cx="387.50" cy="62.50" r="1.25"/>
    <circle cx="392.50" cy="62.50" r="0.75"/>
    <circle cx="397.50" cy="62.50" r="1.25"/>
    <circle cx="402.50" cy="62.50" r="1.55"/>
    <circle cx="407.50" cy="62.50" r="2.10"/>
    <circle cx="412.50" cy="62.50" r="1.00"/>
    <circle cx="527.50" cy="62.50" r="2.10"/>
    <circle cx="532.50" cy="62.50" r="1.00"/>
    <circle cx="572.50" cy="62.50" r="0.55"/>
    <circle cx="577.50" cy="62.50" r="1.80"/>
    <circle cx="582.50" cy="62.50" r="2.10"/>
    <circle cx="587.50" cy="62.50" r="1.25"/>
    <circle cx="2.50" cy="67.50" r="2.30"/>
    <circle cx="7.50" cy="67.50" r="2.30"/>
    <circle cx="12.50" cy="67.50" r="2.10"/>
    <circle cx="17.50" cy="67.50" r="2.30"/>
    <circle cx="22.50" cy="67.50" r="2.30"/>
    <circle cx="27.50" cy="67.50" r="1.80"/>
    <circle cx="87.50" cy="67.50" r="2.10"/>
    <circle cx="92.50" cy="67.50" r="2.30"/>
    <circle cx="97.50" cy="67.50" r="2.10"/>
    <circle cx="102.50" cy="67.50" r="2.30"/>
    <circle cx="107.50" cy="67.50" r="2.30"/>
    <circle cx="112.50" cy="67.50" r="2.30"/>
    <circle cx="157.50" cy="67.50" r="0.55"/>
    <circle cx="162.50" cy="67.50" r="2.30"/>
    <circle cx="192.50" cy="67.50" r="1.25"/>
    <circle cx="197.50" cy="67.50" r="2.10"/>
    <circle cx="337.50" cy="67.50" r="1.80"/>
    <circle cx="342.50" cy="67.50" r="1.80"/>
    <circle cx="372.50" cy="67.50" r="1.55"/>
    <circle cx="377.50" cy="67.50" r="1.80"/>
    <circle cx="407.50" cy="67.50" r="0.75"/>
    <circle cx="412.50" cy="67.50" r="2.30"/>
    <circle cx="417.50" cy="67.50" r="0.75"/>
    <circle cx="527.50" cy="67.50" r="2.10"/>
    <circle cx="532.50" cy="67.50" r="1.00"/>
    <circle cx="577.50" cy="67.50" r="1.25"/>
    <circle cx="582.50" cy="67.50" r="1.55"/>
    <circle cx="587.50" cy="67.50" r="1.55"/>
    <circle cx="2.50" cy="72.50" r="2.10"/>
    <circle cx="7.50" cy="72.50" r="2.30"/>
    <circle cx="12.50" cy="72.50" r="2.30"/>
    <circle cx="17.50" cy="72.50" r="2.30"/>
    <circle cx="22.50" cy="72.50" r="2.30"/>
    <circle cx="27.50" cy="72.50" r="2.10"/>
    <circle cx="87.50" cy="72.50" r="2.30"/>
    <circle cx="92.50" cy="72.50" r="2.30"/>
    <circle cx="97.50" cy="72.50" r="2.30"/>
    <circle cx="102.50" cy="72.50" r="2.30"/>
    <circle cx="107.50" cy="72.50" r="2.30"/>
    <circle cx="112.50" cy="72.50" r="2.30"/>
    <circle cx="117.50" cy="72.50" r="0.55"/>
    <circle cx="157.50" cy="72.50" r="0.35"/>
    <circle cx="162.50" cy="72.50" r="2.10"/>
    <circle cx="192.50" cy="72.50" r="1.25"/>
    <circle cx="197.50" cy="72.50" r="2.30"/>
    <circle cx="212.50" cy="72.50" r="0.75"/>
    <circle cx="222.50" cy="72.50" r="1.25"/>
    <circle cx="227.50" cy="72.50" r="1.25"/>
    <circle cx="237.50" cy="72.50" r="0.55"/>
    <circle cx="242.50" cy="72.50" r="1.00"/>
    <circle cx="247.50" cy="72.50" r="1.55"/>
    <circle cx="252.50" cy="72.50" r="1.00"/>
    <circle cx="272.50" cy="72.50" r="1.00"/>
    <circle cx="282.50" cy="72.50" r="1.00"/>
    <circle cx="287.50" cy="72.50" r="1.25"/>
    <circle cx="292.50" cy="72.50" r="0.75"/>
    <circle cx="317.50" cy="72.50" r="0.75"/>
    <circle cx="322.50" cy="72.50" r="1.25"/>
    <circle cx="327.50" cy="72.50" r="1.00"/>
    <circle cx="337.50" cy="72.50" r="1.55"/>
    <circle cx="342.50" cy="72.50" r="1.25"/>
    <circle cx="367.50" cy="72.50" r="0.75"/>
    <circle cx="372.50" cy="72.50" r="2.30"/>
    <circle cx="377.50" cy="72.50" r="0.55"/>
    <circle cx="412.50" cy="72.50" r="2.10"/>
    <circle cx="417.50" cy="72.50" r="2.10"/>
    <circle cx="427.50" cy="72.50" r="0.75"/>
    <circle cx="437.50" cy="72.50" r="0.75"/>
    <circle cx="442.50" cy="72.50" r="1.25"/>
    <circle cx="447.50" cy="72.50" r="0.55"/>
    <circle cx="457.50" cy="72.50" r="0.75"/>
    <circle cx="462.50" cy="72.50" r="1.00"/>
    <circle cx="467.50" cy="72.50" r="1.25"/>
    <circle cx="472.50" cy="72.50" r="0.55"/>
    <circle cx="497.50" cy="72.50" r="1.00"/>
    <circle cx="502.50" cy="72.50" r="1.25"/>
    <circle cx="507.50" cy="72.50" r="1.55"/>
    <circle cx="512.50" cy="72.50" r="0.75"/>
    <circle cx="527.50" cy="72.50" r="2.10"/>
    <circle cx="532.50" cy="72.50" r="1.25"/>
    <circle cx="547.50" cy="72.50" r="0.55"/>
    <circle cx="552.50" cy="72.50" r="1.25"/>
    <circle cx="557.50" cy="72.50" r="1.55"/>
    <circle cx="562.50" cy="72.50" r="0.75"/>
    <circle cx="577.50" cy="72.50" r="0.75"/>
    <circle cx="582.50" cy="72.50" r="1.00"/>
    <circle cx="2.50" cy="77.50" r="2.30"/>
    <circle cx="7.50" cy="77.50" r="2.30"/>
    <circle cx="12.50" cy="77.50" r="2.10"/>
    <circle cx="17.50" cy="77.50" r="2.30"/>
    <circle cx="22.50" cy="77.50" r="2.30"/>
    <circle cx="27.50" cy="77.50" r="1.25"/>
    <circle cx="87.50" cy="77.50" r="1.80"/>
    <circle cx="92.50" cy="77.50" r="2.30"/>
    <circle cx="97.50" cy="77.50" r="2.10"/>
    <circle cx="102.50" cy="77.50" r="2.30"/>
    <circle cx="107.50" cy="77.50" r="2.30"/>
    <circle cx="112.50" cy="77.50" r="2.10"/>
    <circle cx="157.50" cy="77.50" r="0.35"/>
    <circle cx="162.50" cy="77.50" r="2.30"/>
    <circle cx="192.50" cy="77.50" r="1.55"/>
    <circle cx="197.50" cy="77.50" r="2.10"/>
    <circle cx="207.50" cy="77.50" r="0.75"/>
    <circle cx="212.50" cy="77.50" r="1.55"/>
    <circle cx="217.50" cy="77.50" r="2.10"/>
    <circle cx="222.50" cy="77.50" r="2.10"/>
    <circle cx="227.50" cy="77.50" r="1.25"/>
    <circle cx="232.50" cy="77.50" r="1.00"/>
    <circle cx="237.50" cy="77.50" r="2.30"/>
    <circle cx="242.50" cy="77.50" r="1.55"/>
    <circle cx="247.50" cy="77.50" r="1.55"/>
    <circle cx="252.50" cy="77.50" r="2.10"/>
    <circle cx="257.50" cy="77.50" r="2.30"/>
    <circle cx="267.50" cy="77.50" r="0.35"/>
    <circle cx="272.50" cy="77.50" r="2.30"/>
    <circle cx="277.50" cy="77.50" r="1.80"/>
    <circle cx="282.50" cy="77.50" r="1.55"/>
    <circle cx="287.50" cy="77.50" r="1.25"/>
    <circle cx="292.50" cy="77.50" r="2.30"/>
    <circle cx="297.50" cy="77.50" r="2.10"/>
    <circle cx="312.50" cy="77.50" r="1.80"/>
    <circle cx="317.50" cy="77.50" r="2.10"/>
    <circle cx="322.50" cy="77.50" r="1.80"/>
    <circle cx="327.50" cy="77.50" r="1.55"/>
    <circle cx="332.50" cy="77.50" r="2.10"/>
    <circle cx="337.50" cy="77.50" r="1.80"/>
    <circle cx="342.50" cy="77.50" r="1.55"/>
    <circle cx="367.50" cy="77.50" r="1.25"/>
    <circle cx="372.50" cy="77.50" r="1.80"/>
    <circle cx="412.50" cy="77.50" r="1.00"/>
    <circle cx="417.50" cy="77.50" r="2.30"/>
    <circle cx="427.50" cy="77.50" r="1.55"/>
    <circle cx="432.50" cy="77.50" r="1.55"/>
    <circle cx="437.50" cy="77.50" r="2.30"/>
    <circle cx="442.50" cy="77.50" r="1.55"/>
    <circle cx="447.50" cy="77.50" r="1.00"/>
    <circle cx="452.50" cy="77.50" r="1.55"/>
    <circle cx="457.50" cy="77.50" r="1.80"/>
    <circle cx="462.50" cy="77.50" r="1.55"/>
    <circle cx="467.50" cy="77.50" r="1.25"/>
    <circle cx="472.50" cy="77.50" r="2.30"/>
    <circle cx="477.50" cy="77.50" r="1.25"/>
    <circle cx="492.50" cy="77.50" r="1.80"/>
    <circle cx="497.50" cy="77.50" r="1.80"/>
    <circle cx="502.50" cy="77.50" r="1.55"/>
    <circle cx="507.50" cy="77.50" r="1.25"/>
    <circle cx="512.50" cy="77.50" r="2.30"/>
    <circle cx="517.50" cy="77.50" r="1.00"/>
    <circle cx="527.50" cy="77.50" r="2.10"/>
    <circle cx="532.50" cy="77.50" r="1.00"/>
    <circle cx="542.50" cy="77.50" r="1.55"/>
    <circle cx="547.50" cy="77.50" r="2.30"/>
    <circle cx="552.50" cy="77.50" r="1.55"/>
    <circle cx="557.50" cy="77.50" r="1.55"/>
    <circle cx="562.50" cy="77.50" r="2.10"/>
    <circle cx="567.50" cy="77.50" r="1.80"/>
    <circle cx="2.50" cy="82.50" r="0.75"/>
    <circle cx="7.50" cy="82.50" r="2.30"/>
    <circle cx="12.50" cy="82.50" r="2.30"/>
    <circle cx="17.50" cy="82.50" r="2.30"/>
    <circle cx="22.50" cy="82.50" r="2.10"/>
    <circle cx="92.50" cy="82.50" r="1.80"/>
    <circle cx="97.50" cy="82.50" r="2.30"/>
    <circle cx="102.50" cy="82.50" r="2.30"/>
    <circle cx="107.50" cy="82.50" r="2.30"/>
    <circle cx="112.50" cy="82.50" r="1.00"/>
    <circle cx="157.50" cy="82.50" r="0.55"/>
    <circle cx="162.50" cy="82.50" r="2.30"/>
    <circle cx="167.50" cy="82.50" r="2.30"/>
    <circle cx="172.50" cy="82.50" r="1.80"/>
    <circle cx="177.50" cy="82.50" r="2.30"/>
    <circle cx="182.50" cy="82.50" r="1.80"/>
    <circle cx="187.50" cy="82.50" r="1.80"/>
    <circle cx="192.50" cy="82.50" r="2.30"/>
    <circle cx="207.50" cy="82.50" r="1.00"/>
    <circle cx="212.50" cy="82.50" r="2.30"/>
    <circle cx="217.50" cy="82.50" r="0.55"/>
    <circle cx="232.50" cy="82.50" r="1.80"/>
    <circle cx="237.50" cy="82.50" r="1.25"/>
    <circle cx="257.50" cy="82.50" r="2.30"/>
    <circle cx="262.50" cy="82.50" r="0.75"/>
    <circle cx="267.50" cy="82.50" r="0.75"/>
    <circle cx="272.50" cy="82.50" r="2.30"/>
    <circle cx="277.50" cy="82.50" r="1.00"/>
    <circle cx="297.50" cy="82.50" r="2.30"/>
    <circle cx="302.50" cy="82.50" r="0.55"/>
    <circle cx="307.50" cy="82.50" r="1.00"/>
    <circle cx="312.50" cy="82.50" r="2.30"/>
    <circle cx="332.50" cy="82.50" r="1.00"/>
    <circle cx="337.50" cy="82.50" r="2.30"/>
    <circle cx="342.50" cy="82.50" r="1.55"/>
    <circle cx="367.50" cy="82.50" r="2.30"/>
    <circle cx="372.50" cy="82.50" r="1.55"/>
    <circle cx="412.50" cy="82.50" r="0.35"/>
    <circle cx="417.50" cy="82.50" r="2.30"/>
    <circle cx="422.50" cy="82.50" r="0.55"/>
    <circle cx="427.50" cy="82.50" r="1.55"/>
    <circle cx="432.50" cy="82.50" r="2.10"/>
    <circle cx="437.50" cy="82.50" r="0.35"/>
    <circle cx="452.50" cy="82.50" r="2.10"/>
    <circle cx="457.50" cy="82.50" r="0.55"/>
    <circle cx="472.50" cy="82.50" r="0.55"/>
    <circle cx="477.50" cy="82.50" r="2.30"/>
    <circle cx="487.50" cy="82.50" r="1.25"/>
    <circle cx="492.50" cy="82.50" r="1.80"/>
    <circle cx="512.50" cy="82.50" r="0.55"/>
    <circle cx="517.50" cy="82.50" r="2.30"/>
    <circle cx="527.50" cy="82.50" r="2.30"/>
    <circle cx="532.50" cy="82.50" r="0.75"/>
    <circle cx="537.50" cy="82.50" r="0.75"/>
    <circle cx="542.50" cy="82.50" r="2.30"/>
    <circle cx="547.50" cy="82.50" r="0.75"/>
    <circle cx="567.50" cy="82.50" r="2.10"/>
    <circle cx="572.50" cy="82.50" r="1.55"/>
    <circle cx="7.50" cy="87.50" r="2.10"/>
    <circle cx="12.50" cy="87.50" r="2.30"/>
    <circle cx="17.50" cy="87.50" r="2.30"/>
    <circle cx="22.50" cy="87.50" r="1.25"/>
    <circle cx="92.50" cy="87.50" r="1.55"/>
    <circle cx="97.50" cy="87.50" r="2.30"/>
    <circle cx="102.50" cy="87.50" r="2.30"/>
    <circle cx="107.50" cy="87.50" r="1.80"/>
    <circle cx="157.50" cy="87.50" r="0.55"/>
    <circle cx="162.50" cy="87.50" r="2.10"/>
    <circle cx="167.50" cy="87.50" r="1.00"/>
    <circle cx="172.50" cy="87.50" r="1.00"/>
    <circle cx="177.50" cy="87.50" r="1.00"/>
    <circle cx="182.50" cy="87.50" r="1.25"/>
    <circle cx="187.50" cy="87.50" r="1.55"/>
    <circle cx="192.50" cy="87.50" r="2.10"/>
    <circle cx="197.50" cy="87.50" r="1.80"/>
    <circle cx="207.50" cy="87.50" r="1.25"/>
    <circle cx="212.50" cy="87.50" r="2.10"/>
    <circle cx="232.50" cy="87.50" r="0.75"/>
    <circle cx="252.50" cy="87.50" r="0.75"/>
    <circle cx="257.50" cy="87.50" r="2.30"/>
    <circle cx="262.50" cy="87.50" r="0.75"/>
    <circle cx="267.50" cy="87.50" r="0.75"/>
    <circle cx="272.50" cy="87.50" r="2.30"/>
    <circle cx="297.50" cy="87.50" r="1.80"/>
    <circle cx="302.50" cy="87.50" r="1.00"/>
    <circle cx="307.50" cy="87.50" r="1.80"/>
    <circle cx="312.50" cy="87.50" r="1.25"/>
    <circle cx="337.50" cy="87.50" r="1.80"/>
    <circle cx="342.50" cy="87.50" r="1.55"/>
    <circle cx="367.50" cy="87.50" r="2.30"/>
    <circle cx="372.50" cy="87.50" r="1.80"/>
    <circle cx="412.50" cy="87.50" r="0.55"/>
    <circle cx="417.50" cy="87.50" r="2.10"/>
    <circle cx="422.50" cy="87.50" r="0.55"/>
    <circle cx="427.50" cy="87.50" r="1.25"/>
    <circle cx="432.50" cy="87.50" r="1.55"/>
    <circle cx="452.50" cy="87.50" r="0.55"/>
    <circle cx="472.50" cy="87.50" r="1.25"/>
    <circle cx="477.50" cy="87.50" r="2.30"/>
    <circle cx="487.50" cy="87.50" r="2.30"/>
    <circle cx="492.50" cy="87.50" r="1.00"/>
    <circle cx="517.50" cy="87.50" r="1.25"/>
    <circle cx="522.50" cy="87.50" r="0.75"/>
    <circle cx="527.50" cy="87.50" r="2.10"/>
    <circle cx="532.50" cy="87.50" r="1.00"/>
    <circle cx="537.50" cy="87.50" r="1.55"/>
    <circle cx="542.50" cy="87.50" r="1.55"/>
    <circle cx="567.50" cy="87.50" r="1.00"/>
    <circle cx="572.50" cy="87.50" r="1.80"/>
    <circle cx="2.50" cy="92.50" r="1.80"/>
    <circle cx="7.50" cy="92.50" r="2.30"/>
    <circle cx="12.50" cy="92.50" r="2.30"/>
    <circle cx="17.50" cy="92.50" r="2.10"/>
    <circle cx="22.50" cy="92.50" r="2.30"/>
    <circle cx="27.50" cy="92.50" r="0.75"/>
    <circle cx="87.50" cy="92.50" r="1.55"/>
    <circle cx="92.50" cy="92.50" r="2.30"/>
    <circle cx="97.50" cy="92.50" r="2.30"/>
    <circle cx="102.50" cy="92.50" r="2.10"/>
    <circle cx="107.50" cy="92.50" r="2.10"/>
    <circle cx="112.50" cy="92.50" r="1.80"/>
    <circle cx="157.50" cy="92.50" r="0.55"/>
    <circle cx="162.50" cy="92.50" r="2.30"/>
    <circle cx="192.50" cy="92.50" r="0.75"/>
    <circle cx="197.50" cy="92.50" r="2.30"/>
    <circle cx="202.50" cy="92.50" r="1.00"/>
    <circle cx="207.50" cy="92.50" r="1.00"/>
    <circle cx="212.50" cy="92.50" r="1.25"/>
    <circle cx="237.50" cy="92.50" r="1.25"/>
    <circle cx="242.50" cy="92.50" r="2.10"/>
    <circle cx="247.50" cy="92.50" r="2.10"/>
    <circle cx="252.50" cy="92.50" r="2.10"/>
    <circle cx="257.50" cy="92.50" r="2.30"/>
    <circle cx="262.50" cy="92.50" r="1.25"/>
    <circle cx="267.50" cy="92.50" r="0.75"/>
    <circle cx="272.50" cy="92.50" r="2.30"/>
    <circle cx="297.50" cy="92.50" r="2.30"/>
    <circle cx="302.50" cy="92.50" r="1.00"/>
    <circle cx="307.50" cy="92.50" r="2.10"/>
    <circle cx="312.50" cy="92.50" r="1.00"/>
    <circle cx="337.50" cy="92.50" r="1.55"/>
    <circle cx="342.50" cy="92.50" r="1.55"/>
    <circle cx="367.50" cy="92.50" r="1.55"/>
    <circle cx="372.50" cy="92.50" r="1.80"/>
    <circle cx="412.50" cy="92.50" r="0.75"/>
    <circle cx="417.50" cy="92.50" r="2.30"/>
    <circle cx="427.50" cy="92.50" r="1.55"/>
    <circle cx="432.50" cy="92.50" r="0.75"/>
    <circle cx="452.50" cy="92.50" r="0.75"/>
    <circle cx="457.50" cy="92.50" r="1.55"/>
    <circle cx="462.50" cy="92.50" r="1.80"/>
    <circle cx="467.50" cy="92.50" r="2.30"/>
    <circle cx="472.50" cy="92.50" r="1.80"/>
    <circle cx="477.50" cy="92.50" r="2.30"/>
    <circle cx="487.50" cy="92.50" r="2.30"/>
    <circle cx="492.50" cy="92.50" r="0.75"/>
    <circle cx="527.50" cy="92.50" r="2.10"/>
    <circle cx="532.50" cy="92.50" r="0.75"/>
    <circle cx="537.50" cy="92.50" r="2.10"/>
    <circle cx="542.50" cy="92.50" r="2.30"/>
    <circle cx="547.50" cy="92.50" r="2.30"/>
    <circle cx="552.50" cy="92.50" r="2.10"/>
    <circle cx="557.50" cy="92.50" r="2.30"/>
    <circle cx="562.50" cy="92.50" r="2.30"/>
    <circle cx="567.50" cy="92.50" r="2.30"/>
    <circle cx="572.50" cy="92.50" r="2.10"/>
    <circle cx="2.50" cy="97.50" r="2.10"/>
    <circle cx="7.50" cy="97.50" r="2.10"/>
    <circle cx="12.50" cy="97.50" r="2.30"/>
    <circle cx="17.50" cy="97.50" r="2.30"/>
    <circle cx="22.50" cy="97.50" r="2.30"/>
    <circle cx="27.50" cy="97.50" r="2.10"/>
    <circle cx="87.50" cy="97.50" r="2.10"/>
    <circle cx="92.50" cy="97.50" r="2.30"/>
    <circle cx="97.50" cy="97.50" r="2.30"/>
    <circle cx="102.50" cy="97.50" r="2.30"/>
    <circle cx="107.50" cy="97.50" r="2.30"/>
    <circle cx="112.50" cy="97.50" r="2.10"/>
    <circle cx="157.50" cy="97.50" r="0.55"/>
    <circle cx="162.50" cy="97.50" r="2.30"/>
    <circle cx="197.50" cy="97.50" r="2.10"/>
    <circle cx="202.50" cy="97.50" r="1.00"/>
    <circle cx="207.50" cy="97.50" r="0.75"/>
    <circle cx="212.50" cy="97.50" r="1.55"/>
    <circle cx="232.50" cy="97.50" r="1.80"/>
    <circle cx="237.50" cy="97.50" r="1.80"/>
    <circle cx="242.50" cy="97.50" r="0.75"/>
    <circle cx="257.50" cy="97.50" r="2.10"/>
    <circle cx="262.50" cy="97.50" r="1.25"/>
    <circle cx="267.50" cy="97.50" r="0.55"/>
    <circle cx="272.50" cy="97.50" r="2.30"/>
    <circle cx="297.50" cy="97.50" r="2.30"/>
    <circle cx="302.50" cy="97.50" r="0.75"/>
    <circle cx="307.50" cy="97.50" r="2.10"/>
    <circle cx="312.50" cy="97.50" r="0.75"/>
    <circle cx="337.50" cy="97.50" r="1.55"/>
    <circle cx="342.50" cy="97.50" r="1.55"/>
    <circle cx="367.50" cy="97.50" r="1.00"/>
    <circle cx="372.50" cy="97.50" r="2.10"/>
    <circle cx="412.50" cy="97.50" r="1.00"/>
    <circle cx="417.50" cy="97.50" r="2.30"/>
    <circle cx="427.50" cy="97.50" r="1.55"/>
    <circle cx="432.50" cy="97.50" r="1.25"/>
    <circle cx="447.50" cy="97.50" r="0.75"/>
    <circle cx="452.50" cy="97.50" r="2.10"/>
    <circle cx="457.50" cy="97.50" r="1.00"/>
    <circle cx="477.50" cy="97.50" r="2.30"/>
    <circle cx="487.50" cy="97.50" r="2.30"/>
    <circle cx="492.50" cy="97.50" r="0.55"/>
    <circle cx="517.50" cy="97.50" r="0.75"/>
    <circle cx="527.50" cy="97.50" r="2.10"/>
    <circle cx="532.50" cy="97.50" r="1.00"/>
    <circle cx="537.50" cy="97.50" r="1.80"/>
    <circle cx="542.50" cy="97.50" r="1.00"/>
    <circle cx="2.50" cy="102.50" r="2.30"/>
    <circle cx="7.50" cy="102.50" r="2.30"/>
    <circle cx="12.50" cy="102.50" r="2.30"/>
    <circle cx="17.50" cy="102.50" r="2.30"/>
    <circle cx="22.50" cy="102.50" r="2.30"/>
    <circle cx="27.50" cy="102.50" r="2.10"/>
    <circle cx="87.50" cy="102.50" r="2.30"/>
    <circle cx="92.50" cy="102.50" r="2.10"/>
    <circle cx="97.50" cy="102.50" r="2.30"/>
    <circle cx="102.50" cy="102.50" r="2.30"/>
    <circle cx="107.50" cy="102.50" r="2.30"/>
    <circle cx="112.50" cy="102.50" r="2.30"/>
    <circle cx="157.50" cy="102.50" r="0.55"/>
    <circle cx="162.50" cy="102.50" r="2.30"/>
    <circle cx="197.50" cy="102.50" r="2.30"/>
    <circle cx="202.50" cy="102.50" r="0.75"/>
    <circle cx="207.50" cy="102.50" r="1.25"/>
    <circle cx="212.50" cy="102.50" r="1.80"/>
    <circle cx="227.50" cy="102.50" r="0.55"/>
    <circle cx="232.50" cy="102.50" r="2.30"/>
    <circle cx="257.50" cy="102.50" r="2.10"/>
    <circle cx="262.50" cy="102.50" r="0.75"/>
    <circle cx="267.50" cy="102.50" r="0.55"/>
    <circle cx="272.50" cy="102.50" r="2.30"/>
    <circle cx="297.50" cy="102.50" r="1.80"/>
    <circle cx="302.50" cy="102.50" r="1.25"/>
    <circle cx="307.50" cy="102.50" r="1.80"/>
    <circle cx="312.50" cy="102.50" r="1.80"/>
    <circle cx="337.50" cy="102.50" r="2.10"/>
    <circle cx="342.50" cy="102.50" r="1.55"/>
    <circle cx="372.50" cy="102.50" r="1.80"/>
    <circle cx="377.50" cy="102.50" r="1.25"/>
    <circle cx="407.50" cy="102.50" r="0.55"/>
    <circle cx="412.50" cy="102.50" r="2.30"/>
    <circle cx="417.50" cy="102.50" r="1.00"/>
    <circle cx="427.50" cy="102.50" r="1.55"/>
    <circle cx="432.50" cy="102.50" r="1.00"/>
    <circle cx="447.50" cy="102.50" r="1.25"/>
    <circle cx="452.50" cy="102.50" r="1.55"/>
    <circle cx="472.50" cy="102.50" r="0.75"/>
    <circle cx="477.50" cy="102.50" r="2.10"/>
    <circle cx="487.50" cy="102.50" r="1.55"/>
    <circle cx="492.50" cy="102.50" r="1.25"/>
    <circle cx="517.50" cy="102.50" r="2.30"/>
    <circle cx="522.50" cy="102.50" r="0.75"/>
    <circle cx="527.50" cy="102.50" r="2.10"/>
    <circle cx="532.50" cy="102.50" r="1.25"/>
    <circle cx="537.50" cy="102.50" r="1.55"/>
    <circle cx="542.50" cy="102.50" r="1.80"/>
    <circle cx="567.50" cy="102.50" r="0.75"/>
    <circle cx="572.50" cy="102.50" r="1.00"/>
    <circle cx="2.50" cy="107.50" r="2.10"/>
    <circle cx="7.50" cy="107.50" r="2.30"/>
    <circle cx="12.50" cy="107.50" r="2.30"/>
    <circle cx="17.50" cy="107.50" r="2.10"/>
    <circle cx="22.50" cy="107.50" r="2.30"/>
    <circle cx="27.50" cy="107.50" r="1.55"/>
    <circle cx="87.50" cy="107.50" r="1.25"/>
    <circle cx="92.50" cy="107.50" r="2.30"/>
    <circle cx="97.50" cy="107.50" r="2.10"/>
    <circle cx="102.50" cy="107.50" r="2.30"/>
    <circle cx="107.50" cy="107.50" r="2.10"/>
    <circle cx="112.50" cy="107.50" r="1.55"/>
    <circle cx="157.50" cy="107.50" r="0.75"/>
    <circle cx="162.50" cy="107.50" r="2.30"/>
    <circle cx="167.50" cy="107.50" r="1.00"/>
    <circle cx="172.50" cy="107.50" r="0.35"/>
    <circle cx="177.50" cy="107.50" r="0.55"/>
    <circle cx="182.50" cy="107.50" r="0.55"/>
    <circle cx="187.50" cy="107.50" r="1.00"/>
    <circle cx="192.50" cy="107.50" r="1.55"/>
    <circle cx="197.50" cy="107.50" r="2.10"/>
    <circle cx="207.50" cy="107.50" r="1.25"/>
    <circle cx="212.50" cy="107.50" r="1.55"/>
    <circle cx="232.50" cy="107.50" r="2.10"/>
    <circle cx="237.50" cy="107.50" r="0.75"/>
    <circle cx="252.50" cy="107.50" r="1.55"/>
    <circle cx="257.50" cy="107.50" r="2.30"/>
    <circle cx="262.50" cy="107.50" r="1.00"/>
    <circle cx="267.50" cy="107.50" r="0.75"/>
    <circle cx="272.50" cy="107.50" r="2.30"/>
    <circle cx="297.50" cy="107.50" r="2.10"/>
    <circle cx="302.50" cy="107.50" r="1.25"/>
    <circle cx="307.50" cy="107.50" r="0.75"/>
    <circle cx="312.50" cy="107.50" r="2.30"/>
    <circle cx="317.50" cy="107.50" r="1.55"/>
    <circle cx="332.50" cy="107.50" r="1.25"/>
    <circle cx="337.50" cy="107.50" r="2.30"/>
    <circle cx="342.50" cy="107.50" r="1.80"/>
    <circle cx="372.50" cy="107.50" r="0.75"/>
    <circle cx="377.50" cy="107.50" r="2.30"/>
    <circle cx="382.50" cy="107.50" r="1.55"/>
    <circle cx="387.50" cy="107.50" r="1.00"/>
    <circle cx="397.50" cy="107.50" r="0.55"/>
    <circle cx="402.50" cy="107.50" r="1.25"/>
    <circle cx="407.50" cy="107.50" r="2.30"/>
    <circle cx="412.50" cy="107.50" r="1.55"/>
    <circle cx="427.50" cy="107.50" r="1.25"/>
    <circle cx="432.50" cy="107.50" r="1.25"/>
    <circle cx="447.50" cy="107.50" r="1.55"/>
    <circle cx="452.50" cy="107.50" r="2.30"/>
    <circle cx="467.50" cy="107.50" r="0.55"/>
    <circle cx="472.50" cy="107.50" r="1.80"/>
    <circle cx="477.50" cy="107.50" r="2.30"/>
    <circle cx="487.50" cy="107.50" r="0.75"/>
    <circle cx="492.50" cy="107.50" r="2.30"/>
    <circle cx="497.50" cy="107.50" r="0.75"/>
    <circle cx="512.50" cy="107.50" r="1.80"/>
    <circle cx="517.50" cy="107.50" r="2.10"/>
    <circle cx="527.50" cy="107.50" r="2.30"/>
    <circle cx="532.50" cy="107.50" r="1.00"/>
    <circle cx="542.50" cy="107.50" r="2.30"/>
    <circle cx="547.50" cy="107.50" r="1.25"/>
    <circle cx="562.50" cy="107.50" r="0.55"/>
    <circle cx="567.50" cy="107.50" r="2.30"/>
    <circle cx="572.50" cy="107.50" r="1.00"/>
    <circle cx="2.50" cy="112.50" r="0.75"/>
    <circle cx="7.50" cy="112.50" r="1.80"/>
    <circle cx="12.50" cy="112.50" r="2.30"/>
    <circle cx="17.50" cy="112.50" r="2.30"/>
    <circle cx="22.50" cy="112.50" r="1.00"/>
    <circle cx="42.50" cy="112.50" r="0.55"/>
    <circle cx="72.50" cy="112.50" r="0.55"/>
    <circle cx="92.50" cy="112.50" r="1.55"/>
    <circle cx="97.50" cy="112.50" r="2.30"/>
    <circle cx="102.50" cy="112.50" r="2.30"/>
    <circle cx="107.50" cy="112.50" r="1.55"/>
    <circle cx="157.50" cy="112.50" r="0.55"/>
    <circle cx="162.50" cy="112.50" r="1.80"/>
    <circle cx="167.50" cy="112.50" r="2.30"/>
    <circle cx="172.50" cy="112.50" r="1.80"/>
    <circle cx="177.50" cy="112.50" r="2.10"/>
    <circle cx="182.50" cy="112.50" r="2.10"/>
    <circle cx="187.50" cy="112.50" r="2.10"/>
    <circle cx="192.50" cy="112.50" r="1.25"/>
    <circle cx="207.50" cy="112.50" r="0.75"/>
    <circle cx="212.50" cy="112.50" r="1.55"/>
    <circle cx="232.50" cy="112.50" r="1.25"/>
    <circle cx="237.50" cy="112.50" r="2.30"/>
    <circle cx="242.50" cy="112.50" r="2.30"/>
    <circle cx="247.50" cy="112.50" r="2.30"/>
    <circle cx="252.50" cy="112.50" r="1.00"/>
    <circle cx="257.50" cy="112.50" r="1.00"/>
    <circle cx="262.50" cy="112.50" r="1.80"/>
    <circle cx="267.50" cy="112.50" r="0.75"/>
    <circle cx="272.50" cy="112.50" r="1.80"/>
    <circle cx="297.50" cy="112.50" r="1.55"/>
    <circle cx="302.50" cy="112.50" r="1.00"/>
    <circle cx="312.50" cy="112.50" r="0.75"/>
    <circle cx="317.50" cy="112.50" r="2.10"/>
    <circle cx="322.50" cy="112.50" r="2.30"/>
    <circle cx="327.50" cy="112.50" r="2.30"/>
    <circle cx="332.50" cy="112.50" r="1.55"/>
    <circle cx="337.50" cy="112.50" r="1.00"/>
    <circle cx="342.50" cy="112.50" r="1.25"/>
    <circle cx="382.50" cy="112.50" r="1.55"/>
    <circle cx="387.50" cy="112.50" r="2.30"/>
    <circle cx="392.50" cy="112.50" r="2.30"/>
    <circle cx="397.50" cy="112.50" r="2.30"/>
    <circle cx="402.50" cy="112.50" r="1.80"/>
    <circle cx="407.50" cy="112.50" r="1.00"/>
    <circle cx="427.50" cy="112.50" r="1.25"/>
    <circle cx="432.50" cy="112.50" r="0.75"/>
    <circle cx="452.50" cy="112.50" r="1.80"/>
    <circle cx="457.50" cy="112.50" r="2.30"/>
    <circle cx="462.50" cy="112.50" r="2.30"/>
    <circle cx="467.50" cy="112.50" r="2.10"/>
    <circle cx="472.50" cy="112.50" r="0.75"/>
    <circle cx="477.50" cy="112.50" r="2.10"/>
    <circle cx="482.50" cy="112.50" r="1.55"/>
    <circle cx="492.50" cy="112.50" r="0.75"/>
    <circle cx="497.50" cy="112.50" r="2.30"/>
    <circle cx="502.50" cy="112.50" r="2.30"/>
    <circle cx="507.50" cy="112.50" r="2.30"/>
    <circle cx="512.50" cy="112.50" r="1.25"/>
    <circle cx="527.50" cy="112.50" r="1.55"/>
    <circle cx="532.50" cy="112.50" r="1.00"/>
    <circle cx="542.50" cy="112.50" r="0.75"/>
    <circle cx="547.50" cy="112.50" r="1.80"/>
    <circle cx="552.50" cy="112.50" r="2.30"/>
    <circle cx="557.50" cy="112.50" r="2.30"/>
    <circle cx="562.50" cy="112.50" r="2.10"/>
    <circle cx="567.50" cy="112.50" r="1.00"/>
    <circle cx="32.50" cy="117.50" r="1.25"/>
    <circle cx="37.50" cy="117.50" r="2.30"/>
    <circle cx="42.50" cy="117.50" r="2.10"/>
    <circle cx="47.50" cy="117.50" r="2.30"/>
    <circle cx="52.50" cy="117.50" r="1.25"/>
    <circle cx="62.50" cy="117.50" r="1.55"/>
    <circle cx="67.50" cy="117.50" r="2.10"/>
    <circle cx="72.50" cy="117.50" r="2.10"/>
    <circle cx="77.50" cy="117.50" r="2.30"/>
    <circle cx="82.50" cy="117.50" r="0.75"/>
    <circle cx="27.50" cy="122.50" r="0.35"/>
    <circle cx="32.50" cy="122.50" r="2.30"/>
    <circle cx="37.50" cy="122.50" r="2.30"/>
    <circle cx="42.50" cy="122.50" r="2.10"/>
    <circle cx="47.50" cy="122.50" r="2.30"/>
    <circle cx="52.50" cy="122.50" r="2.30"/>
    <circle cx="57.50" cy="122.50" r="1.55"/>
    <circle cx="62.50" cy="122.50" r="2.30"/>
    <circle cx="67.50" cy="122.50" r="2.30"/>
    <circle cx="72.50" cy="122.50" r="2.30"/>
    <circle cx="77.50" cy="122.50" r="2.30"/>
    <circle cx="82.50" cy="122.50" r="2.30"/>
    <circle cx="27.50" cy="127.50" r="1.25"/>
    <circle cx="32.50" cy="127.50" r="2.10"/>
    <circle cx="37.50" cy="127.50" r="2.30"/>
    <circle cx="42.50" cy="127.50" r="2.30"/>
    <circle cx="47.50" cy="127.50" r="2.30"/>
    <circle cx="52.50" cy="127.50" r="2.30"/>
    <circle cx="57.50" cy="127.50" r="2.30"/>
    <circle cx="62.50" cy="127.50" r="2.10"/>
    <circle cx="67.50" cy="127.50" r="2.30"/>
    <circle cx="72.50" cy="127.50" r="2.30"/>
    <circle cx="77.50" cy="127.50" r="2.30"/>
    <circle cx="82.50" cy="127.50" r="2.30"/>
    <circle cx="87.50" cy="127.50" r="1.25"/>
    <circle cx="27.50" cy="132.50" r="0.75"/>
    <circle cx="32.50" cy="132.50" r="2.30"/>
    <circle cx="37.50" cy="132.50" r="2.30"/>
    <circle cx="42.50" cy="132.50" r="2.30"/>
    <circle cx="47.50" cy="132.50" r="2.10"/>
    <circle cx="52.50" cy="132.50" r="2.30"/>
    <circle cx="57.50" cy="132.50" r="2.30"/>
    <circle cx="62.50" cy="132.50" r="2.30"/>
    <circle cx="67.50" cy="132.50" r="2.30"/>
    <circle cx="72.50" cy="132.50" r="2.30"/>
    <circle cx="77.50" cy="132.50" r="2.30"/>
    <circle cx="82.50" cy="132.50" r="2.30"/>
    <circle cx="87.50" cy="132.50" r="0.75"/>
    <circle cx="32.50" cy="137.50" r="2.10"/>
    <circle cx="37.50" cy="137.50" r="2.10"/>
    <circle cx="42.50" cy="137.50" r="2.30"/>
    <circle cx="47.50" cy="137.50" r="2.30"/>
    <circle cx="52.50" cy="137.50" r="2.30"/>
    <circle cx="57.50" cy="137.50" r="1.00"/>
    <circle cx="62.50" cy="137.50" r="2.30"/>
    <circle cx="67.50" cy="137.50" r="2.30"/>
    <circle cx="72.50" cy="137.50" r="2.30"/>
    <circle cx="77.50" cy="137.50" r="2.30"/>
    <circle cx="82.50" cy="137.50" r="2.10"/>
    <circle cx="37.50" cy="142.50" r="1.80"/>
    <circle cx="42.50" cy="142.50" r="2.30"/>
    <circle cx="47.50" cy="142.50" r="2.10"/>
    <circle cx="52.50" cy="142.50" r="0.75"/>
    <circle cx="62.50" cy="142.50" r="0.75"/>
    <circle cx="67.50" cy="142.50" r="2.10"/>
    <circle cx="72.50" cy="142.50" r="2.30"/>
    <circle cx="77.50" cy="142.50" r="1.55"/>
  </g>
</svg>
