<?xml version="1.0" encoding="UTF-8"?>
<svg id="Layer_2" data-name="Layer 2" xmlns="http://www.w3.org/2000/svg" viewBox="0 0 590.33 145.47">
  <defs>
    <style>
      .cls-1 {
        fill: #fff;
      }
    </style>
  </defs>
  <g id="Layer_1-2" data-name="Layer 1">
    <g>
      <g>
        <path class="cls-1" d="M160.37,115.45v-56.59h22.56c11.16,0,17.89,5.38,17.89,14.25,0,6.73-3.88,10.21-8.94,11.95v.16c6.33,1.19,11.24,5.86,11.24,14.01,0,10.69-7.44,16.23-18.68,16.23h-24.06ZM184.04,83.15c7.84,0,10.76-3.88,10.76-9.5s-3.48-9.73-10.76-9.73h-17.89v19.23h17.89ZM184.67,110.38c8.94,0,12.43-4.59,12.43-11.16s-4.27-11-11-11h-19.95v22.16h18.52Z"/>
        <path class="cls-1" d="M229.25,74.37v5.07c-.79-.16-1.66-.24-2.45-.24-7.28,0-12.66,5.86-12.66,13.69v22.56h-5.14v-40.37h5.14v8.23h.16c2.06-5.3,5.78-9.18,11.48-9.18,1.42,0,2.53.08,3.48.24Z"/>
        <path class="cls-1" d="M229.85,105.24c0-8.71,6.17-11.48,16.62-13.3,6.65-1.19,10.92-1.66,10.92-6.49,0-4.12-2.69-6.89-9.18-6.89-7.84,0-10.61,2.77-11,8.71h-5.46c.4-7.12,4.91-13.22,16.62-13.22,7.44,0,14.01,3.17,14.01,12.82v20.18c0,3.24.48,4.75,2.3,4.75.32,0,.63,0,1.11-.08v3.72c-.87.16-1.74.32-2.69.32-3.4,0-5.38-1.35-5.7-6.41h-.16c-2.77,4.59-7.6,7.12-14.17,7.12-8.07,0-13.22-4.51-13.22-11.24ZM257.4,100.33v-7.52c-1.19,1.66-5.46,2.61-10.29,3.4-7.84,1.42-11.87,3.4-11.87,8.55,0,4.67,2.61,7.2,8.47,7.2,8.23,0,13.69-4.35,13.69-11.63Z"/>
        <path class="cls-1" d="M302.62,87.11v28.33h-5.14v-27.23c0-5.14-2.37-9.58-9.34-9.58-7.68,0-12.74,5.38-12.74,11.32v25.49h-5.14v-40.37h5.14v5.78h.16c2.3-3.32,6.65-6.73,13.85-6.73s13.22,4.04,13.22,12.98Z"/>
        <path class="cls-1" d="M338.46,58.85h5.14v56.59h-5.14v-6.57h-.16c-2.29,3.96-6.57,7.6-13.61,7.6-9.81,0-17.73-7.91-17.73-21.21s7.92-21.13,17.73-21.13c7.04,0,11.24,3.48,13.61,7.76h.16v-23.03ZM338.46,95.26c0-10.13-5.38-16.62-13.14-16.62-8.39,0-12.98,7.6-12.98,16.62s4.59,16.7,12.98,16.7c7.76,0,13.14-6.49,13.14-16.7Z"/>
        <path class="cls-1" d="M367.36,87.11c0-17.02,10.84-29.28,27.23-29.28s27.15,12.27,27.15,29.28-10.84,29.36-27.15,29.36-27.23-12.35-27.23-29.36ZM415.72,87.11c0-13.38-7.2-24.22-21.13-24.22s-21.21,10.84-21.21,24.22,7.2,24.3,21.21,24.3,21.13-10.92,21.13-24.3Z"/>
        <path class="cls-1" d="M448.12,74.37v5.07c-.79-.16-1.66-.24-2.45-.24-7.28,0-12.66,5.86-12.66,13.69v22.56h-5.14v-40.37h5.14v8.23h.16c2.06-5.3,5.78-9.18,11.48-9.18,1.42,0,2.53.08,3.48.24Z"/>
        <path class="cls-1" d="M448.29,105.24c0-8.71,6.17-11.48,16.62-13.3,6.65-1.19,10.92-1.66,10.92-6.49,0-4.12-2.69-6.89-9.18-6.89-7.84,0-10.61,2.77-11,8.71h-5.46c.4-7.12,4.91-13.22,16.62-13.22,7.44,0,14.01,3.17,14.01,12.82v20.18c0,3.24.48,4.75,2.3,4.75.32,0,.63,0,1.11-.08v3.72c-.87.16-1.74.32-2.69.32-3.4,0-5.38-1.35-5.7-6.41h-.16c-2.77,4.59-7.6,7.12-14.17,7.12-8.07,0-13.22-4.51-13.22-11.24ZM475.84,100.33v-7.52c-1.19,1.66-5.46,2.61-10.29,3.4-7.84,1.42-11.87,3.4-11.87,8.55,0,4.67,2.61,7.2,8.47,7.2,8.23,0,13.69-4.35,13.69-11.63Z"/>
        <path class="cls-1" d="M485.98,95.26c0-12.58,7.76-21.13,19.31-21.13,9.82,0,16.46,6.57,17.33,15.12h-5.38c-.32-4.51-3.56-10.61-11.95-10.61-9.89,0-13.93,8.39-13.93,16.62s4.04,16.78,13.93,16.78c8.47,0,11.64-6.09,11.95-11h5.38c-.55,8.71-7.52,15.43-17.33,15.43-11.55,0-19.31-8.55-19.31-21.21Z"/>
        <path class="cls-1" d="M527.38,115.45v-56.59h5.14v56.59h-5.14Z"/>
        <path class="cls-1" d="M574.87,96.29h-31.98c.08,8.15,4.43,15.83,13.93,15.83,8.31,0,11.56-5.7,12.35-9.02h5.22c-1.98,7.36-7.52,13.46-17.65,13.46-12.35,0-19.23-9.02-19.23-21.29,0-12.9,7.6-21.21,19.23-21.21s18.2,8.15,18.2,19.39c0,1.11,0,2.22-.08,2.85ZM569.48,91.78c0-7.2-4.67-13.3-12.98-13.3-7.84,0-13.22,5.78-13.61,13.3h26.59Z"/>
        <path class="cls-1" d="M574.94,65.65c0-4.48,3.41-7.82,7.69-7.82s7.69,3.34,7.69,7.82-3.41,7.82-7.69,7.82-7.69-3.31-7.69-7.82ZM589.06,65.65c0-3.89-2.86-6.68-6.43-6.68s-6.43,2.79-6.43,6.68,2.89,6.68,6.43,6.68,6.43-2.76,6.43-6.68ZM579.52,69.9v-8.6h3.47c1.95,0,2.99.91,2.99,2.5,0,1.17-.71,1.88-1.88,2.14v.06c2.14.39,1.46,3.57,2.04,3.8v.1h-1.75c-.62-.45.23-3.25-1.91-3.25h-1.23v3.25h-1.72ZM582.57,65.22c1.04,0,1.75-.26,1.75-1.3s-.75-1.2-1.72-1.2h-1.36v2.5h1.33Z"/>
      </g>
      <g>
        <path class="cls-1" d="M87.54,128.84c1.01,8.99-6.02,16.63-14.81,16.63-5.52,0-10.34-3.02-12.92-7.5-.67-1.17-2.41-1.17-3.08,0-2.57,4.48-7.39,7.5-12.92,7.5-8.79,0-15.82-7.64-14.81-16.63.77-6.81,6.26-12.31,13.07-13.09,6.23-.71,11.79,2.45,14.64,7.37.69,1.2,2.42,1.2,3.11,0,2.84-4.92,8.41-8.08,14.64-7.37,6.81.78,12.31,6.28,13.07,13.09Z"/>
        <path class="cls-1" d="M43.82,58.73c5.52,0,10.34-3.02,12.92-7.5.67-1.17,2.41-1.17,3.08,0,2.57,4.48,7.39,7.5,12.92,7.5,8.79,0,15.82-7.64,14.81-16.63-.77-6.81-6.26-12.31-13.07-13.09-6.23-.71-11.79,2.45-14.64,7.37-.7,1.2-2.42,1.2-3.11,0-2.84-4.92-8.41-8.08-14.64-7.37-6.81.78-12.31,6.28-13.07,13.09-1.01,8.99,6.02,16.63,14.81,16.63Z"/>
        <path class="cls-1" d="M22.34,88.75c-1.2-.69-1.2-2.42,0-3.11,4.92-2.84,8.08-8.41,7.37-14.64-.77-6.81-6.28-12.31-13.09-13.07-8.99-1.01-16.63,6.02-16.63,14.81,0,5.52,3.02,10.34,7.5,12.92,1.17.67,1.17,2.41,0,3.08-4.48,2.57-7.5,7.39-7.5,12.92,0,8.79,7.64,15.82,16.63,14.81,6.81-.77,12.31-6.26,13.09-13.07.71-6.23-2.45-11.79-7.37-14.64Z"/>
        <path class="cls-1" d="M109.08,88.75c-1.2-.69-1.2-2.42,0-3.11,4.92-2.84,8.08-8.41,7.37-14.64-.77-6.81-6.28-12.31-13.09-13.07-8.99-1.01-16.63,6.02-16.63,14.81,0,5.52,3.02,10.34,7.5,12.92,1.17.67,1.17,2.41,0,3.08-4.48,2.57-7.5,7.39-7.5,12.92,0,8.79,7.64,15.82,16.63,14.81,6.81-.77,12.31-6.26,13.09-13.07.71-6.23-2.45-11.79-7.37-14.64Z"/>
        <circle class="cls-1" cx="14.91" cy="14.91" r="14.91"/>
      </g>
    </g>
  </g>
</svg>