<?xml version="1.0" encoding="UTF-8"?>
<svg xmlns="http://www.w3.org/2000/svg" viewBox="0 0 430.00 59.00" role="img" aria-labelledby="title">
  <title id="title">Brand Oracle wordmark dotted</title>
  <g fill="#fff">
    <circle cx="2.00" cy="2.00" r="1.84"/>
    <circle cx="6.00" cy="2.00" r="1.84"/>
    <circle cx="10.00" cy="2.00" r="1.84"/>
    <circle cx="14.00" cy="2.00" r="1.84"/>
    <circle cx="18.00" cy="2.00" r="1.68"/>
    <circle cx="22.00" cy="2.00" r="1.84"/>
    <circle cx="26.00" cy="2.00" r="1.84"/>
    <circle cx="30.00" cy="2.00" r="1.00"/>
    <circle cx="178.00" cy="2.00" r="1.24"/>
    <circle cx="182.00" cy="2.00" r="1.68"/>
    <circle cx="222.00" cy="2.00" r="1.00"/>
    <circle cx="226.00" cy="2.00" r="1.84"/>
    <circle cx="230.00" cy="2.00" r="1.84"/>
    <circle cx="234.00" cy="2.00" r="1.84"/>
    <circle cx="238.00" cy="2.00" r="1.84"/>
    <circle cx="242.00" cy="2.00" r="1.84"/>
    <circle cx="246.00" cy="2.00" r="0.80"/>
    <circle cx="366.00" cy="2.00" r="0.80"/>
    <circle cx="370.00" cy="2.00" r="1.44"/>
    <circle cx="418.00" cy="2.00" r="1.00"/>
    <circle cx="422.00" cy="2.00" r="1.24"/>
    <circle cx="426.00" cy="2.00" r="1.00"/>
    <circle cx="2.00" cy="6.00" r="1.68"/>
    <circle cx="6.00" cy="6.00" r="1.68"/>
    <circle cx="10.00" cy="6.00" r="1.24"/>
    <circle cx="14.00" cy="6.00" r="1.44"/>
    <circle cx="18.00" cy="6.00" r="1.44"/>
    <circle cx="22.00" cy="6.00" r="1.24"/>
    <circle cx="26.00" cy="6.00" r="1.44"/>
    <circle cx="30.00" cy="6.00" r="1.84"/>
    <circle cx="34.00" cy="6.00" r="1.84"/>
    <circle cx="38.00" cy="6.00" r="0.80"/>
    <circle cx="178.00" cy="6.00" r="1.44"/>
    <circle cx="182.00" cy="6.00" r="1.84"/>
    <circle cx="214.00" cy="6.00" r="0.60"/>
    <circle cx="218.00" cy="6.00" r="1.84"/>
    <circle cx="222.00" cy="6.00" r="1.84"/>
    <circle cx="226.00" cy="6.00" r="1.44"/>
    <circle cx="230.00" cy="6.00" r="0.60"/>
    <circle cx="234.00" cy="6.00" r="0.60"/>
    <circle cx="238.00" cy="6.00" r="0.60"/>
    <circle cx="242.00" cy="6.00" r="1.44"/>
    <circle cx="246.00" cy="6.00" r="1.84"/>
    <circle cx="250.00" cy="6.00" r="1.24"/>
    <circle cx="366.00" cy="6.00" r="0.80"/>
    <circle cx="370.00" cy="6.00" r="1.68"/>
    <circle cx="414.00" cy="6.00" r="1.00"/>
    <circle cx="418.00" cy="6.00" r="0.60"/>
    <circle cx="422.00" cy="6.00" r="1.24"/>
    <circle cx="426.00" cy="6.00" r="0.60"/>
    <circle cx="2.00" cy="10.00" r="1.84"/>
    <circle cx="6.00" cy="10.00" r="0.60"/>
    <circle cx="34.00" cy="10.00" r="1.84"/>
    <circle cx="38.00" cy="10.00" r="1.68"/>
    <circle cx="178.00" cy="10.00" r="1.68"/>
    <circle cx="182.00" cy="10.00" r="1.84"/>
    <circle cx="214.00" cy="10.00" r="1.84"/>
    <circle cx="218.00" cy="10.00" r="1.84"/>
    <circle cx="222.00" cy="10.00" r="0.80"/>
    <circle cx="246.00" cy="10.00" r="0.80"/>
    <circle cx="250.00" cy="10.00" r="1.84"/>
    <circle cx="254.00" cy="10.00" r="1.68"/>
    <circle cx="366.00" cy="10.00" r="0.60"/>
    <circle cx="370.00" cy="10.00" r="1.84"/>
    <circle cx="414.00" cy="10.00" r="1.00"/>
    <circle cx="418.00" cy="10.00" r="1.00"/>
    <circle cx="422.00" cy="10.00" r="0.80"/>
    <circle cx="426.00" cy="10.00" r="0.60"/>
    <circle cx="2.00" cy="14.00" r="1.84"/>
    <circle cx="6.00" cy="14.00" r="0.60"/>
    <circle cx="34.00" cy="14.00" r="1.44"/>
    <circle cx="38.00" cy="14.00" r="1.84"/>
    <circle cx="178.00" cy="14.00" r="1.68"/>
    <circle cx="182.00" cy="14.00" r="1.84"/>
    <circle cx="210.00" cy="14.00" r="1.00"/>
    <circle cx="214.00" cy="14.00" r="1.84"/>
    <circle cx="218.00" cy="14.00" r="0.60"/>
    <circle cx="250.00" cy="14.00" r="0.80"/>
    <circle cx="254.00" cy="14.00" r="1.84"/>
    <circle cx="258.00" cy="14.00" r="1.00"/>
    <circle cx="366.00" cy="14.00" r="0.60"/>
    <circle cx="370.00" cy="14.00" r="1.84"/>
    <circle cx="418.00" cy="14.00" r="1.00"/>
    <circle cx="422.00" cy="14.00" r="1.24"/>
    <circle cx="426.00" cy="14.00" r="0.80"/>
    <circle cx="2.00" cy="18.00" r="1.68"/>
    <circle cx="6.00" cy="18.00" r="0.80"/>
    <circle cx="34.00" cy="18.00" r="1.44"/>
    <circle cx="38.00" cy="18.00" r="1.68"/>
    <circle cx="50.00" cy="18.00" r="1.84"/>
    <circle cx="54.00" cy="18.00" r="0.60"/>
    <circle cx="58.00" cy="18.00" r="0.60"/>
    <circle cx="62.00" cy="18.00" r="1.84"/>
    <circle cx="66.00" cy="18.00" r="1.68"/>
    <circle cx="78.00" cy="18.00" r="1.24"/>
    <circle cx="82.00" cy="18.00" r="1.84"/>
    <circle cx="86.00" cy="18.00" r="1.84"/>
    <circle cx="90.00" cy="18.00" r="1.84"/>
    <circle cx="94.00" cy="18.00" r="1.68"/>
    <circle cx="98.00" cy="18.00" r="0.60"/>
    <circle cx="110.00" cy="18.00" r="1.24"/>
    <circle cx="114.00" cy="18.00" r="1.44"/>
    <circle cx="118.00" cy="18.00" r="0.80"/>
    <circle cx="122.00" cy="18.00" r="1.68"/>
    <circle cx="126.00" cy="18.00" r="1.84"/>
    <circle cx="130.00" cy="18.00" r="1.68"/>
    <circle cx="134.00" cy="18.00" r="1.44"/>
    <circle cx="138.00" cy="18.00" r="0.80"/>
    <circle cx="154.00" cy="18.00" r="0.60"/>
    <circle cx="158.00" cy="18.00" r="1.84"/>
    <circle cx="162.00" cy="18.00" r="1.84"/>
    <circle cx="166.00" cy="18.00" r="1.68"/>
    <circle cx="170.00" cy="18.00" r="1.68"/>
    <circle cx="174.00" cy="18.00" r="0.60"/>
    <circle cx="178.00" cy="18.00" r="1.24"/>
    <circle cx="182.00" cy="18.00" r="1.68"/>
    <circle cx="210.00" cy="18.00" r="1.84"/>
    <circle cx="214.00" cy="18.00" r="1.24"/>
    <circle cx="254.00" cy="18.00" r="1.84"/>
    <circle cx="258.00" cy="18.00" r="1.84"/>
    <circle cx="266.00" cy="18.00" r="0.44"/>
    <circle cx="270.00" cy="18.00" r="1.84"/>
    <circle cx="278.00" cy="18.00" r="1.44"/>
    <circle cx="282.00" cy="18.00" r="1.84"/>
    <circle cx="286.00" cy="18.00" r="1.84"/>
    <circle cx="294.00" cy="18.00" r="0.60"/>
    <circle cx="298.00" cy="18.00" r="1.44"/>
    <circle cx="302.00" cy="18.00" r="1.84"/>
    <circle cx="306.00" cy="18.00" r="1.84"/>
    <circle cx="310.00" cy="18.00" r="1.68"/>
    <circle cx="314.00" cy="18.00" r="1.24"/>
    <circle cx="334.00" cy="18.00" r="0.60"/>
    <circle cx="338.00" cy="18.00" r="1.68"/>
    <circle cx="342.00" cy="18.00" r="1.84"/>
    <circle cx="346.00" cy="18.00" r="1.84"/>
    <circle cx="350.00" cy="18.00" r="1.84"/>
    <circle cx="354.00" cy="18.00" r="1.24"/>
    <circle cx="366.00" cy="18.00" r="0.80"/>
    <circle cx="370.00" cy="18.00" r="1.84"/>
    <circle cx="386.00" cy="18.00" r="1.00"/>
    <circle cx="390.00" cy="18.00" r="1.84"/>
    <circle cx="394.00" cy="18.00" r="1.84"/>
    <circle cx="398.00" cy="18.00" r="1.84"/>
    <circle cx="402.00" cy="18.00" r="1.84"/>
    <circle cx="406.00" cy="18.00" r="0.80"/>
    <circle cx="2.00" cy="22.00" r="1.84"/>
    <circle cx="6.00" cy="22.00" r="0.44"/>
    <circle cx="30.00" cy="22.00" r="0.60"/>
    <circle cx="34.00" cy="22.00" r="1.84"/>
    <circle cx="38.00" cy="22.00" r="1.00"/>
    <circle cx="50.00" cy="22.00" r="1.84"/>
    <circle cx="54.00" cy="22.00" r="1.44"/>
    <circle cx="58.00" cy="22.00" r="1.68"/>
    <circle cx="62.00" cy="22.00" r="1.24"/>
    <circle cx="66.00" cy="22.00" r="0.44"/>
    <circle cx="74.00" cy="22.00" r="1.24"/>
    <circle cx="78.00" cy="22.00" r="1.84"/>
    <circle cx="82.00" cy="22.00" r="0.60"/>
    <circle cx="90.00" cy="22.00" r="0.60"/>
    <circle cx="94.00" cy="22.00" r="1.00"/>
    <circle cx="98.00" cy="22.00" r="1.84"/>
    <circle cx="110.00" cy="22.00" r="1.44"/>
    <circle cx="114.00" cy="22.00" r="1.84"/>
    <circle cx="118.00" cy="22.00" r="1.84"/>
    <circle cx="122.00" cy="22.00" r="1.24"/>
    <circle cx="130.00" cy="22.00" r="0.80"/>
    <circle cx="134.00" cy="22.00" r="1.44"/>
    <circle cx="138.00" cy="22.00" r="1.68"/>
    <circle cx="150.00" cy="22.00" r="1.00"/>
    <circle cx="154.00" cy="22.00" r="1.68"/>
    <circle cx="158.00" cy="22.00" r="1.68"/>
    <circle cx="162.00" cy="22.00" r="0.80"/>
    <circle cx="170.00" cy="22.00" r="1.00"/>
    <circle cx="174.00" cy="22.00" r="1.84"/>
    <circle cx="178.00" cy="22.00" r="1.68"/>
    <circle cx="182.00" cy="22.00" r="1.84"/>
    <circle cx="206.00" cy="22.00" r="0.80"/>
    <circle cx="210.00" cy="22.00" r="1.68"/>
    <circle cx="214.00" cy="22.00" r="1.00"/>
    <circle cx="254.00" cy="22.00" r="1.44"/>
    <circle cx="258.00" cy="22.00" r="1.84"/>
    <circle cx="266.00" cy="22.00" r="0.60"/>
    <circle cx="270.00" cy="22.00" r="1.84"/>
    <circle cx="274.00" cy="22.00" r="1.24"/>
    <circle cx="278.00" cy="22.00" r="1.84"/>
    <circle cx="282.00" cy="22.00" r="0.80"/>
    <circle cx="286.00" cy="22.00" r="0.60"/>
    <circle cx="294.00" cy="22.00" r="1.84"/>
    <circle cx="298.00" cy="22.00" r="1.44"/>
    <circle cx="302.00" cy="22.00" r="0.60"/>
    <circle cx="310.00" cy="22.00" r="0.80"/>
    <circle cx="314.00" cy="22.00" r="1.84"/>
    <circle cx="318.00" cy="22.00" r="1.44"/>
    <circle cx="330.00" cy="22.00" r="0.80"/>
    <circle cx="334.00" cy="22.00" r="1.84"/>
    <circle cx="338.00" cy="22.00" r="0.80"/>
    <circle cx="342.00" cy="22.00" r="0.60"/>
    <circle cx="350.00" cy="22.00" r="0.80"/>
    <circle cx="354.00" cy="22.00" r="1.84"/>
    <circle cx="358.00" cy="22.00" r="1.24"/>
    <circle cx="366.00" cy="22.00" r="0.60"/>
    <circle cx="370.00" cy="22.00" r="1.84"/>
    <circle cx="382.00" cy="22.00" r="1.24"/>
    <circle cx="386.00" cy="22.00" r="1.84"/>
    <circle cx="390.00" cy="22.00" r="1.00"/>
    <circle cx="402.00" cy="22.00" r="0.80"/>
    <circle cx="406.00" cy="22.00" r="1.84"/>
    <circle cx="410.00" cy="22.00" r="1.00"/>
    <circle cx="2.00" cy="26.00" r="1.84"/>
    <circle cx="6.00" cy="26.00" r="1.84"/>
    <circle cx="10.00" cy="26.00" r="1.84"/>
    <circle cx="14.00" cy="26.00" r="1.84"/>
    <circle cx="18.00" cy="26.00" r="1.84"/>
    <circle cx="22.00" cy="26.00" r="1.84"/>
    <circle cx="26.00" cy="26.00" r="1.84"/>
    <circle cx="30.00" cy="26.00" r="1.84"/>
    <circle cx="34.00" cy="26.00" r="1.00"/>
    <circle cx="50.00" cy="26.00" r="1.84"/>
    <circle cx="54.00" cy="26.00" r="1.84"/>
    <circle cx="58.00" cy="26.00" r="0.60"/>
    <circle cx="74.00" cy="26.00" r="1.84"/>
    <circle cx="78.00" cy="26.00" r="0.80"/>
    <circle cx="98.00" cy="26.00" r="1.84"/>
    <circle cx="102.00" cy="26.00" r="0.60"/>
    <circle cx="110.00" cy="26.00" r="1.44"/>
    <circle cx="114.00" cy="26.00" r="1.84"/>
    <circle cx="118.00" cy="26.00" r="0.60"/>
    <circle cx="138.00" cy="26.00" r="1.84"/>
    <circle cx="142.00" cy="26.00" r="1.00"/>
    <circle cx="150.00" cy="26.00" r="1.68"/>
    <circle cx="154.00" cy="26.00" r="1.24"/>
    <circle cx="174.00" cy="26.00" r="0.80"/>
    <circle cx="178.00" cy="26.00" r="1.84"/>
    <circle cx="182.00" cy="26.00" r="1.84"/>
    <circle cx="206.00" cy="26.00" r="0.80"/>
    <circle cx="210.00" cy="26.00" r="1.84"/>
    <circle cx="254.00" cy="26.00" r="0.60"/>
    <circle cx="258.00" cy="26.00" r="1.84"/>
    <circle cx="262.00" cy="26.00" r="0.60"/>
    <circle cx="266.00" cy="26.00" r="0.60"/>
    <circle cx="270.00" cy="26.00" r="1.84"/>
    <circle cx="274.00" cy="26.00" r="1.68"/>
    <circle cx="290.00" cy="26.00" r="1.44"/>
    <circle cx="294.00" cy="26.00" r="1.84"/>
    <circle cx="314.00" cy="26.00" r="1.00"/>
    <circle cx="318.00" cy="26.00" r="1.68"/>
    <circle cx="330.00" cy="26.00" r="1.84"/>
    <circle cx="334.00" cy="26.00" r="1.24"/>
    <circle cx="354.00" cy="26.00" r="1.00"/>
    <circle cx="358.00" cy="26.00" r="1.84"/>
    <circle cx="366.00" cy="26.00" r="0.44"/>
    <circle cx="370.00" cy="26.00" r="1.84"/>
    <circle cx="378.00" cy="26.00" r="0.60"/>
    <circle cx="382.00" cy="26.00" r="1.84"/>
    <circle cx="386.00" cy="26.00" r="0.60"/>
    <circle cx="406.00" cy="26.00" r="1.00"/>
    <circle cx="410.00" cy="26.00" r="1.84"/>
    <circle cx="2.00" cy="30.00" r="1.84"/>
    <circle cx="6.00" cy="30.00" r="1.44"/>
    <circle cx="10.00" cy="30.00" r="1.24"/>
    <circle cx="14.00" cy="30.00" r="1.44"/>
    <circle cx="18.00" cy="30.00" r="1.44"/>
    <circle cx="22.00" cy="30.00" r="1.44"/>
    <circle cx="26.00" cy="30.00" r="1.44"/>
    <circle cx="30.00" cy="30.00" r="1.84"/>
    <circle cx="34.00" cy="30.00" r="1.84"/>
    <circle cx="38.00" cy="30.00" r="1.00"/>
    <circle cx="50.00" cy="30.00" r="1.68"/>
    <circle cx="54.00" cy="30.00" r="1.24"/>
    <circle cx="74.00" cy="30.00" r="0.44"/>
    <circle cx="94.00" cy="30.00" r="0.80"/>
    <circle cx="98.00" cy="30.00" r="1.84"/>
    <circle cx="102.00" cy="30.00" r="0.60"/>
    <circle cx="110.00" cy="30.00" r="1.44"/>
    <circle cx="114.00" cy="30.00" r="1.84"/>
    <circle cx="138.00" cy="30.00" r="1.84"/>
    <circle cx="142.00" cy="30.00" r="1.44"/>
    <circle cx="146.00" cy="30.00" r="0.44"/>
    <circle cx="150.00" cy="30.00" r="1.84"/>
    <circle cx="178.00" cy="30.00" r="1.84"/>
    <circle cx="182.00" cy="30.00" r="1.84"/>
    <circle cx="206.00" cy="30.00" r="0.80"/>
    <circle cx="210.00" cy="30.00" r="1.84"/>
    <circle cx="254.00" cy="30.00" r="0.60"/>
    <circle cx="258.00" cy="30.00" r="1.84"/>
    <circle cx="262.00" cy="30.00" r="0.60"/>
    <circle cx="266.00" cy="30.00" r="0.80"/>
    <circle cx="270.00" cy="30.00" r="1.84"/>
    <circle cx="274.00" cy="30.00" r="0.60"/>
    <circle cx="290.00" cy="30.00" r="0.60"/>
    <circle cx="294.00" cy="30.00" r="0.60"/>
    <circle cx="314.00" cy="30.00" r="1.00"/>
    <circle cx="318.00" cy="30.00" r="1.84"/>
    <circle cx="326.00" cy="30.00" r="1.00"/>
    <circle cx="330.00" cy="30.00" r="1.84"/>
    <circle cx="358.00" cy="30.00" r="1.84"/>
    <circle cx="362.00" cy="30.00" r="0.80"/>
    <circle cx="366.00" cy="30.00" r="0.60"/>
    <circle cx="370.00" cy="30.00" r="1.68"/>
    <circle cx="378.00" cy="30.00" r="1.44"/>
    <circle cx="382.00" cy="30.00" r="1.44"/>
    <circle cx="410.00" cy="30.00" r="1.84"/>
    <circle cx="414.00" cy="30.00" r="0.80"/>
    <circle cx="2.00" cy="34.00" r="1.84"/>
    <circle cx="6.00" cy="34.00" r="0.80"/>
    <circle cx="34.00" cy="34.00" r="1.24"/>
    <circle cx="38.00" cy="34.00" r="1.84"/>
    <circle cx="50.00" cy="34.00" r="1.84"/>
    <circle cx="54.00" cy="34.00" r="0.60"/>
    <circle cx="82.00" cy="34.00" r="0.80"/>
    <circle cx="86.00" cy="34.00" r="1.68"/>
    <circle cx="90.00" cy="34.00" r="1.84"/>
    <circle cx="94.00" cy="34.00" r="1.84"/>
    <circle cx="98.00" cy="34.00" r="1.68"/>
    <circle cx="102.00" cy="34.00" r="0.60"/>
    <circle cx="110.00" cy="34.00" r="1.24"/>
    <circle cx="114.00" cy="34.00" r="1.68"/>
    <circle cx="138.00" cy="34.00" r="1.84"/>
    <circle cx="142.00" cy="34.00" r="1.44"/>
    <circle cx="146.00" cy="34.00" r="1.00"/>
    <circle cx="150.00" cy="34.00" r="1.84"/>
    <circle cx="178.00" cy="34.00" r="1.44"/>
    <circle cx="182.00" cy="34.00" r="1.68"/>
    <circle cx="206.00" cy="34.00" r="0.80"/>
    <circle cx="210.00" cy="34.00" r="1.84"/>
    <circle cx="214.00" cy="34.00" r="0.60"/>
    <circle cx="254.00" cy="34.00" r="0.60"/>
    <circle cx="258.00" cy="34.00" r="1.84"/>
    <circle cx="266.00" cy="34.00" r="0.80"/>
    <circle cx="270.00" cy="34.00" r="1.84"/>
    <circle cx="298.00" cy="34.00" r="0.60"/>
    <circle cx="302.00" cy="34.00" r="1.24"/>
    <circle cx="306.00" cy="34.00" r="1.24"/>
    <circle cx="310.00" cy="34.00" r="1.84"/>
    <circle cx="314.00" cy="34.00" r="1.84"/>
    <circle cx="318.00" cy="34.00" r="1.84"/>
    <circle cx="326.00" cy="34.00" r="1.44"/>
    <circle cx="330.00" cy="34.00" r="1.68"/>
    <circle cx="366.00" cy="34.00" r="0.60"/>
    <circle cx="370.00" cy="34.00" r="1.84"/>
    <circle cx="378.00" cy="34.00" r="1.84"/>
    <circle cx="382.00" cy="34.00" r="1.84"/>
    <circle cx="386.00" cy="34.00" r="1.44"/>
    <circle cx="390.00" cy="34.00" r="1.44"/>
    <circle cx="394.00" cy="34.00" r="1.24"/>
    <circle cx="398.00" cy="34.00" r="1.44"/>
    <circle cx="402.00" cy="34.00" r="1.24"/>
    <circle cx="406.00" cy="34.00" r="1.44"/>
    <circle cx="410.00" cy="34.00" r="1.84"/>
    <circle cx="414.00" cy="34.00" r="1.44"/>
    <circle cx="2.00" cy="38.00" r="1.84"/>
    <circle cx="6.00" cy="38.00" r="0.44"/>
    <circle cx="38.00" cy="38.00" r="1.84"/>
    <circle cx="42.00" cy="38.00" r="1.00"/>
    <circle cx="50.00" cy="38.00" r="1.84"/>
    <circle cx="54.00" cy="38.00" r="0.60"/>
    <circle cx="74.00" cy="38.00" r="1.44"/>
    <circle cx="78.00" cy="38.00" r="1.84"/>
    <circle cx="82.00" cy="38.00" r="1.84"/>
    <circle cx="86.00" cy="38.00" r="1.44"/>
    <circle cx="90.00" cy="38.00" r="0.80"/>
    <circle cx="98.00" cy="38.00" r="1.84"/>
    <circle cx="102.00" cy="38.00" r="0.60"/>
    <circle cx="110.00" cy="38.00" r="1.68"/>
    <circle cx="114.00" cy="38.00" r="1.44"/>
    <circle cx="138.00" cy="38.00" r="1.84"/>
    <circle cx="142.00" cy="38.00" r="1.44"/>
    <circle cx="146.00" cy="38.00" r="1.44"/>
    <circle cx="150.00" cy="38.00" r="1.84"/>
    <circle cx="178.00" cy="38.00" r="1.44"/>
    <circle cx="182.00" cy="38.00" r="1.84"/>
    <circle cx="210.00" cy="38.00" r="1.84"/>
    <circle cx="214.00" cy="38.00" r="1.00"/>
    <circle cx="254.00" cy="38.00" r="1.24"/>
    <circle cx="258.00" cy="38.00" r="1.84"/>
    <circle cx="266.00" cy="38.00" r="0.60"/>
    <circle cx="270.00" cy="38.00" r="1.68"/>
    <circle cx="290.00" cy="38.00" r="0.80"/>
    <circle cx="294.00" cy="38.00" r="1.84"/>
    <circle cx="298.00" cy="38.00" r="1.84"/>
    <circle cx="302.00" cy="38.00" r="1.24"/>
    <circle cx="306.00" cy="38.00" r="1.24"/>
    <circle cx="310.00" cy="38.00" r="0.60"/>
    <circle cx="314.00" cy="38.00" r="0.60"/>
    <circle cx="318.00" cy="38.00" r="1.84"/>
    <circle cx="326.00" cy="38.00" r="1.84"/>
    <circle cx="330.00" cy="38.00" r="1.44"/>
    <circle cx="366.00" cy="38.00" r="0.60"/>
    <circle cx="370.00" cy="38.00" r="1.84"/>
    <circle cx="378.00" cy="38.00" r="1.84"/>
    <circle cx="382.00" cy="38.00" r="1.68"/>
    <circle cx="386.00" cy="38.00" r="1.68"/>
    <circle cx="390.00" cy="38.00" r="1.24"/>
    <circle cx="394.00" cy="38.00" r="1.44"/>
    <circle cx="398.00" cy="38.00" r="1.68"/>
    <circle cx="402.00" cy="38.00" r="1.24"/>
    <circle cx="406.00" cy="38.00" r="1.68"/>
    <circle cx="410.00" cy="38.00" r="1.44"/>
    <circle cx="414.00" cy="38.00" r="1.24"/>
    <circle cx="2.00" cy="42.00" r="1.84"/>
    <circle cx="6.00" cy="42.00" r="0.60"/>
    <circle cx="38.00" cy="42.00" r="1.84"/>
    <circle cx="42.00" cy="42.00" r="1.44"/>
    <circle cx="50.00" cy="42.00" r="1.84"/>
    <circle cx="54.00" cy="42.00" r="0.60"/>
    <circle cx="70.00" cy="42.00" r="1.24"/>
    <circle cx="74.00" cy="42.00" r="1.84"/>
    <circle cx="78.00" cy="42.00" r="0.60"/>
    <circle cx="98.00" cy="42.00" r="1.84"/>
    <circle cx="102.00" cy="42.00" r="0.60"/>
    <circle cx="110.00" cy="42.00" r="1.44"/>
    <circle cx="114.00" cy="42.00" r="1.44"/>
    <circle cx="138.00" cy="42.00" r="1.84"/>
    <circle cx="142.00" cy="42.00" r="1.68"/>
    <circle cx="146.00" cy="42.00" r="1.00"/>
    <circle cx="150.00" cy="42.00" r="1.84"/>
    <circle cx="178.00" cy="42.00" r="1.68"/>
    <circle cx="182.00" cy="42.00" r="1.84"/>
    <circle cx="210.00" cy="42.00" r="1.68"/>
    <circle cx="214.00" cy="42.00" r="1.68"/>
    <circle cx="254.00" cy="42.00" r="1.84"/>
    <circle cx="258.00" cy="42.00" r="1.44"/>
    <circle cx="266.00" cy="42.00" r="0.60"/>
    <circle cx="270.00" cy="42.00" r="1.84"/>
    <circle cx="290.00" cy="42.00" r="1.84"/>
    <circle cx="294.00" cy="42.00" r="1.68"/>
    <circle cx="314.00" cy="42.00" r="0.80"/>
    <circle cx="318.00" cy="42.00" r="1.84"/>
    <circle cx="326.00" cy="42.00" r="1.68"/>
    <circle cx="330.00" cy="42.00" r="1.84"/>
    <circle cx="358.00" cy="42.00" r="0.80"/>
    <circle cx="366.00" cy="42.00" r="0.60"/>
    <circle cx="370.00" cy="42.00" r="1.84"/>
    <circle cx="378.00" cy="42.00" r="1.84"/>
    <circle cx="382.00" cy="42.00" r="1.24"/>
    <circle cx="2.00" cy="46.00" r="1.68"/>
    <circle cx="6.00" cy="46.00" r="0.60"/>
    <circle cx="38.00" cy="46.00" r="1.68"/>
    <circle cx="42.00" cy="46.00" r="0.80"/>
    <circle cx="50.00" cy="46.00" r="1.84"/>
    <circle cx="54.00" cy="46.00" r="0.80"/>
    <circle cx="70.00" cy="46.00" r="1.84"/>
    <circle cx="74.00" cy="46.00" r="1.24"/>
    <circle cx="98.00" cy="46.00" r="1.68"/>
    <circle cx="102.00" cy="46.00" r="0.60"/>
    <circle cx="110.00" cy="46.00" r="1.68"/>
    <circle cx="114.00" cy="46.00" r="1.44"/>
    <circle cx="138.00" cy="46.00" r="1.68"/>
    <circle cx="142.00" cy="46.00" r="1.44"/>
    <circle cx="150.00" cy="46.00" r="1.68"/>
    <circle cx="154.00" cy="46.00" r="0.80"/>
    <circle cx="178.00" cy="46.00" r="1.84"/>
    <circle cx="182.00" cy="46.00" r="1.68"/>
    <circle cx="210.00" cy="46.00" r="0.44"/>
    <circle cx="214.00" cy="46.00" r="1.84"/>
    <circle cx="218.00" cy="46.00" r="1.00"/>
    <circle cx="250.00" cy="46.00" r="1.00"/>
    <circle cx="254.00" cy="46.00" r="1.84"/>
    <circle cx="266.00" cy="46.00" r="0.60"/>
    <circle cx="270.00" cy="46.00" r="1.84"/>
    <circle cx="290.00" cy="46.00" r="1.84"/>
    <circle cx="294.00" cy="46.00" r="0.80"/>
    <circle cx="314.00" cy="46.00" r="0.80"/>
    <circle cx="318.00" cy="46.00" r="1.68"/>
    <circle cx="326.00" cy="46.00" r="0.80"/>
    <circle cx="330.00" cy="46.00" r="1.84"/>
    <circle cx="358.00" cy="46.00" r="1.84"/>
    <circle cx="362.00" cy="46.00" r="0.44"/>
    <circle cx="366.00" cy="46.00" r="0.80"/>
    <circle cx="370.00" cy="46.00" r="1.68"/>
    <circle cx="378.00" cy="46.00" r="1.00"/>
    <circle cx="382.00" cy="46.00" r="1.84"/>
    <circle cx="410.00" cy="46.00" r="1.84"/>
    <circle cx="414.00" cy="46.00" r="0.80"/>
    <circle cx="2.00" cy="50.00" r="1.84"/>
    <circle cx="6.00" cy="50.00" r="0.44"/>
    <circle cx="30.00" cy="50.00" r="0.60"/>
    <circle cx="34.00" cy="50.00" r="1.68"/>
    <circle cx="38.00" cy="50.00" r="1.84"/>
    <circle cx="50.00" cy="50.00" r="1.84"/>
    <circle cx="54.00" cy="50.00" r="0.80"/>
    <circle cx="70.00" cy="50.00" r="1.44"/>
    <circle cx="74.00" cy="50.00" r="1.84"/>
    <circle cx="94.00" cy="50.00" r="1.44"/>
    <circle cx="98.00" cy="50.00" r="1.84"/>
    <circle cx="102.00" cy="50.00" r="0.80"/>
    <circle cx="110.00" cy="50.00" r="1.68"/>
    <circle cx="114.00" cy="50.00" r="1.44"/>
    <circle cx="138.00" cy="50.00" r="1.68"/>
    <circle cx="142.00" cy="50.00" r="1.44"/>
    <circle cx="150.00" cy="50.00" r="1.24"/>
    <circle cx="154.00" cy="50.00" r="1.84"/>
    <circle cx="158.00" cy="50.00" r="0.60"/>
    <circle cx="174.00" cy="50.00" r="1.68"/>
    <circle cx="178.00" cy="50.00" r="1.84"/>
    <circle cx="182.00" cy="50.00" r="1.84"/>
    <circle cx="214.00" cy="50.00" r="1.24"/>
    <circle cx="218.00" cy="50.00" r="1.84"/>
    <circle cx="222.00" cy="50.00" r="1.44"/>
    <circle cx="246.00" cy="50.00" r="1.44"/>
    <circle cx="250.00" cy="50.00" r="1.84"/>
    <circle cx="254.00" cy="50.00" r="0.60"/>
    <circle cx="266.00" cy="50.00" r="0.44"/>
    <circle cx="270.00" cy="50.00" r="1.84"/>
    <circle cx="290.00" cy="50.00" r="1.68"/>
    <circle cx="294.00" cy="50.00" r="1.24"/>
    <circle cx="310.00" cy="50.00" r="0.60"/>
    <circle cx="314.00" cy="50.00" r="1.84"/>
    <circle cx="318.00" cy="50.00" r="1.84"/>
    <circle cx="330.00" cy="50.00" r="1.84"/>
    <circle cx="334.00" cy="50.00" r="1.24"/>
    <circle cx="354.00" cy="50.00" r="1.00"/>
    <circle cx="358.00" cy="50.00" r="1.84"/>
    <circle cx="366.00" cy="50.00" r="0.60"/>
    <circle cx="370.00" cy="50.00" r="1.84"/>
    <circle cx="382.00" cy="50.00" r="1.68"/>
    <circle cx="386.00" cy="50.00" r="1.24"/>
    <circle cx="406.00" cy="50.00" r="1.24"/>
    <circle cx="410.00" cy="50.00" r="1.84"/>
    <circle cx="2.00" cy="54.00" r="1.84"/>
    <circle cx="6.00" cy="54.00" r="1.84"/>
    <circle cx="10.00" cy="54.00" r="1.84"/>
    <circle cx="14.00" cy="54.00" r="1.84"/>
    <circle cx="18.00" cy="54.00" r="1.84"/>
    <circle cx="22.00" cy="54.00" r="1.68"/>
    <circle cx="26.00" cy="54.00" r="1.84"/>
    <circle cx="30.00" cy="54.00" r="1.84"/>
    <circle cx="34.00" cy="54.00" r="1.84"/>
    <circle cx="38.00" cy="54.00" r="0.60"/>
    <circle cx="50.00" cy="54.00" r="1.68"/>
    <circle cx="54.00" cy="54.00" r="0.80"/>
    <circle cx="70.00" cy="54.00" r="0.60"/>
    <circle cx="74.00" cy="54.00" r="1.68"/>
    <circle cx="78.00" cy="54.00" r="1.68"/>
    <circle cx="82.00" cy="54.00" r="1.44"/>
    <circle cx="86.00" cy="54.00" r="1.68"/>
    <circle cx="90.00" cy="54.00" r="1.84"/>
    <circle cx="94.00" cy="54.00" r="1.24"/>
    <circle cx="98.00" cy="54.00" r="1.68"/>
    <circle cx="102.00" cy="54.00" r="1.84"/>
    <circle cx="106.00" cy="54.00" r="0.60"/>
    <circle cx="110.00" cy="54.00" r="1.44"/>
    <circle cx="114.00" cy="54.00" r="1.24"/>
    <circle cx="138.00" cy="54.00" r="1.68"/>
    <circle cx="142.00" cy="54.00" r="1.44"/>
    <circle cx="154.00" cy="54.00" r="1.68"/>
    <circle cx="158.00" cy="54.00" r="1.68"/>
    <circle cx="162.00" cy="54.00" r="1.44"/>
    <circle cx="166.00" cy="54.00" r="1.68"/>
    <circle cx="170.00" cy="54.00" r="1.84"/>
    <circle cx="174.00" cy="54.00" r="1.44"/>
    <circle cx="178.00" cy="54.00" r="1.68"/>
    <circle cx="182.00" cy="54.00" r="1.68"/>
    <circle cx="218.00" cy="54.00" r="1.24"/>
    <circle cx="222.00" cy="54.00" r="1.84"/>
    <circle cx="226.00" cy="54.00" r="1.84"/>
    <circle cx="230.00" cy="54.00" r="1.84"/>
    <circle cx="234.00" cy="54.00" r="1.68"/>
    <circle cx="238.00" cy="54.00" r="1.84"/>
    <circle cx="242.00" cy="54.00" r="1.84"/>
    <circle cx="246.00" cy="54.00" r="1.68"/>
    <circle cx="250.00" cy="54.00" r="0.60"/>
    <circle cx="266.00" cy="54.00" r="0.60"/>
    <circle cx="270.00" cy="54.00" r="1.84"/>
    <circle cx="290.00" cy="54.00" r="1.24"/>
    <circle cx="294.00" cy="54.00" r="1.84"/>
    <circle cx="298.00" cy="54.00" r="1.44"/>
    <circle cx="302.00" cy="54.00" r="1.44"/>
    <circle cx="306.00" cy="54.00" r="1.44"/>
    <circle cx="310.00" cy="54.00" r="1.84"/>
    <circle cx="314.00" cy="54.00" r="1.00"/>
    <circle cx="318.00" cy="54.00" r="1.68"/>
    <circle cx="322.00" cy="54.00" r="1.44"/>
    <circle cx="330.00" cy="54.00" r="0.60"/>
    <circle cx="334.00" cy="54.00" r="1.84"/>
    <circle cx="338.00" cy="54.00" r="1.84"/>
    <circle cx="342.00" cy="54.00" r="1.44"/>
    <circle cx="346.00" cy="54.00" r="1.24"/>
    <circle cx="350.00" cy="54.00" r="1.68"/>
    <circle cx="354.00" cy="54.00" r="1.84"/>
    <circle cx="358.00" cy="54.00" r="0.60"/>
    <circle cx="366.00" cy="54.00" r="0.60"/>
    <circle cx="370.00" cy="54.00" r="1.84"/>
    <circle cx="382.00" cy="54.00" r="1.00"/>
    <circle cx="386.00" cy="54.00" r="1.84"/>
    <circle cx="390.00" cy="54.00" r="1.68"/>
    <circle cx="394.00" cy="54.00" r="1.44"/>
    <circle cx="398.00" cy="54.00" r="1.44"/>
    <circle cx="402.00" cy="54.00" r="1.68"/>
    <circle cx="406.00" cy="54.00" r="1.84"/>
    <circle cx="410.00" cy="54.00" r="0.80"/>
    <circle cx="2.00" cy="58.00" r="0.44"/>
    <circle cx="6.00" cy="58.00" r="0.80"/>
    <circle cx="10.00" cy="58.00" r="0.60"/>
    <circle cx="14.00" cy="58.00" r="0.60"/>
    <circle cx="18.00" cy="58.00" r="0.80"/>
    <circle cx="22.00" cy="58.00" r="0.44"/>
    <circle cx="26.00" cy="58.00" r="0.80"/>
    <circle cx="50.00" cy="58.00" r="0.80"/>
    <circle cx="78.00" cy="58.00" r="1.24"/>
    <circle cx="82.00" cy="58.00" r="1.84"/>
    <circle cx="86.00" cy="58.00" r="1.84"/>
    <circle cx="90.00" cy="58.00" r="0.60"/>
    <circle cx="102.00" cy="58.00" r="0.44"/>
    <circle cx="110.00" cy="58.00" r="0.60"/>
    <circle cx="114.00" cy="58.00" r="0.60"/>
    <circle cx="138.00" cy="58.00" r="0.60"/>
    <circle cx="142.00" cy="58.00" r="0.80"/>
    <circle cx="158.00" cy="58.00" r="1.00"/>
    <circle cx="162.00" cy="58.00" r="1.84"/>
    <circle cx="166.00" cy="58.00" r="1.84"/>
    <circle cx="170.00" cy="58.00" r="0.80"/>
    <circle cx="178.00" cy="58.00" r="0.60"/>
    <circle cx="182.00" cy="58.00" r="0.60"/>
    <circle cx="226.00" cy="58.00" r="1.00"/>
    <circle cx="230.00" cy="58.00" r="1.84"/>
    <circle cx="234.00" cy="58.00" r="1.84"/>
    <circle cx="238.00" cy="58.00" r="1.68"/>
    <circle cx="242.00" cy="58.00" r="0.80"/>
    <circle cx="270.00" cy="58.00" r="0.44"/>
    <circle cx="294.00" cy="58.00" r="0.60"/>
    <circle cx="298.00" cy="58.00" r="1.84"/>
    <circle cx="302.00" cy="58.00" r="1.84"/>
    <circle cx="306.00" cy="58.00" r="1.44"/>
    <circle cx="318.00" cy="58.00" r="0.60"/>
    <circle cx="322.00" cy="58.00" r="0.60"/>
    <circle cx="338.00" cy="58.00" r="1.00"/>
    <circle cx="342.00" cy="58.00" r="1.84"/>
    <circle cx="346.00" cy="58.00" r="1.84"/>
    <circle cx="350.00" cy="58.00" r="0.80"/>
    <circle cx="370.00" cy="58.00" r="0.80"/>
    <circle cx="390.00" cy="58.00" r="1.44"/>
    <circle cx="394.00" cy="58.00" r="1.68"/>
    <circle cx="398.00" cy="58.00" r="1.68"/>
    <circle cx="402.00" cy="58.00" r="1.24"/>
  </g>
</svg>
