<?xml version="1.0" encoding="UTF-8"?>
<svg id="Layer_2" data-name="Layer 2" xmlns="http://www.w3.org/2000/svg" viewBox="0 0 426.98 533.51">
  <g id="Layer_1-2" data-name="Layer 1">
    <circle cx="23.55" cy="6.99" r="1.82"/>
    <circle cx="41.55" cy="6.99" r="5.97"/>
    <circle cx="59.55" cy="6.99" r="6.99"/>
    <circle cx="77.55" cy="6.99" r="5.04"/>
    <circle cx="95.55" cy="6.99" r=".68"/>
    <circle cx="5.55" cy="24.99" r="1.46"/>
    <circle cx="23.55" cy="24.99" r="8.24"/>
    <circle cx="41.55" cy="24.99" r="8.55"/>
    <circle cx="59.55" cy="24.99" r="8.55"/>
    <circle cx="77.55" cy="24.99" r="8.55"/>
    <circle cx="95.55" cy="24.99" r="6.92"/>
    <circle cx="5.55" cy="42.99" r="4.94"/>
    <circle cx="23.55" cy="42.99" r="8.55"/>
    <circle cx="41.55" cy="42.99" r="8.55"/>
    <circle cx="59.55" cy="42.99" r="8.55"/>
    <circle cx="77.55" cy="42.99" r="8.55"/>
    <circle cx="95.55" cy="42.99" r="8.55"/>
    <circle cx="113.55" cy="42.99" r="2.32"/>
    <circle cx="5.55" cy="60.99" r="5.46"/>
    <circle cx="23.55" cy="60.99" r="8.55"/>
    <circle cx="41.55" cy="60.99" r="8.55"/>
    <circle cx="59.55" cy="60.99" r="8.55"/>
    <circle cx="77.55" cy="60.99" r="8.55"/>
    <circle cx="95.55" cy="60.99" r="8.55"/>
    <circle cx="113.55" cy="60.99" r="2.83"/>
    <circle cx="5.55" cy="78.99" r="2.96"/>
    <circle cx="23.55" cy="78.99" r="8.55"/>
    <circle cx="41.55" cy="78.99" r="8.55"/>
    <circle cx="59.55" cy="78.99" r="8.55"/>
    <circle cx="77.55" cy="78.99" r="8.55"/>
    <circle cx="95.55" cy="78.99" r="8.15"/>
    <circle cx="113.55" cy="78.99" r=".72"/>
    <circle cx="23.55" cy="96.99" r="4.56"/>
    <circle cx="41.55" cy="96.99" r="8.4"/>
    <circle cx="59.55" cy="96.99" r="8.55"/>
    <circle cx="77.55" cy="96.99" r="7.86"/>
    <circle cx="95.55" cy="96.99" r="2.49"/>
    <circle cx="41.55" cy="114.99" r=".64"/>
    <circle cx="59.55" cy="114.99" r="1.49"/>
    <circle cx="131.55" cy="114.99" r="3.84"/>
    <circle cx="149.55" cy="114.99" r="7.69"/>
    <circle cx="167.55" cy="114.99" r="8.23"/>
    <circle cx="185.55" cy="114.99" r="5.76" transform="translate(42.32 279.72) rotate(-80.78)"/>
    <circle cx="203.55" cy="114.99" r=".77"/>
    <circle cx="239.55" cy="114.99" r="4.73"/>
    <circle cx="257.55" cy="114.99" r="7.96"/>
    <circle cx="275.55" cy="114.99" r="8.06"/>
    <circle cx="293.55" cy="114.99" r="5.05"/>
    <circle cx="113.55" cy="132.99" r="3.34"/>
    <circle cx="131.55" cy="132.99" r="8.55"/>
    <circle cx="149.55" cy="132.99" r="8.55"/>
    <circle cx="167.55" cy="132.99" r="8.55"/>
    <circle cx="185.55" cy="132.99" r="8.55"/>
    <circle cx="203.55" cy="132.99" r="6.72"/>
    <circle cx="221.55" cy="132.99" r="5.41"/>
    <circle cx="239.55" cy="132.99" r="8.55"/>
    <circle cx="257.55" cy="132.99" r="8.55"/>
    <circle cx="275.55" cy="132.99" r="8.55"/>
    <circle cx="293.55" cy="132.99" r="8.55"/>
    <circle cx="311.55" cy="132.99" r="5.24"/>
    <circle cx="113.55" cy="150.99" r="6.55"/>
    <circle cx="131.55" cy="150.99" r="8.55"/>
    <circle cx="149.55" cy="150.99" r="8.55"/>
    <circle cx="167.55" cy="150.99" r="8.55"/>
    <circle cx="185.55" cy="150.99" r="8.55"/>
    <circle cx="203.55" cy="150.99" r="8.55"/>
    <circle cx="221.55" cy="150.99" r="8.55"/>
    <circle cx="239.55" cy="150.99" r="8.55"/>
    <circle cx="257.55" cy="150.99" r="8.55"/>
    <circle cx="275.55" cy="150.99" r="8.55"/>
    <circle cx="293.55" cy="150.99" r="8.55"/>
    <circle cx="311.55" cy="150.99" r="8.3"/>
    <circle cx="113.55" cy="168.99" r="6.61"/>
    <circle cx="131.55" cy="168.99" r="8.55"/>
    <circle cx="149.55" cy="168.99" r="8.55"/>
    <circle cx="167.55" cy="168.99" r="8.55"/>
    <circle cx="185.55" cy="168.99" r="8.55"/>
    <circle cx="203.55" cy="168.99" r="8.55"/>
    <circle cx="221.55" cy="168.99" r="8.55"/>
    <circle cx="239.55" cy="168.99" r="8.55"/>
    <circle cx="257.55" cy="168.99" r="8.55"/>
    <circle cx="275.55" cy="168.99" r="8.55"/>
    <circle cx="293.55" cy="168.99" r="8.55"/>
    <circle cx="311.55" cy="168.99" r="8.35"/>
    <circle cx="113.55" cy="186.99" r="3.56"/>
    <circle cx="131.55" cy="186.99" r="8.55"/>
    <circle cx="149.55" cy="186.99" r="8.55"/>
    <circle cx="167.55" cy="186.99" r="8.55"/>
    <circle cx="185.55" cy="186.99" r="8.55"/>
    <circle cx="203.55" cy="186.99" r="6.91"/>
    <circle cx="221.55" cy="186.99" r="5.68"/>
    <circle cx="239.55" cy="186.99" r="8.55"/>
    <circle cx="257.55" cy="186.99" r="8.55"/>
    <circle cx="275.55" cy="186.99" r="8.55"/>
    <circle cx="293.55" cy="186.99" r="8.55"/>
    <circle cx="311.55" cy="186.99" r="5.45"/>
    <circle cx="59.55" cy="204.99" r="1.17"/>
    <circle cx="131.55" cy="204.99" r="4.19"/>
    <circle cx="149.55" cy="204.99" r="7.99"/>
    <circle cx="167.55" cy="204.99" r="8.44"/>
    <circle cx="185.55" cy="204.99" r="6.09"/>
    <circle cx="203.55" cy="204.99" r=".92"/>
    <circle cx="239.55" cy="204.99" r="5.07"/>
    <circle cx="257.55" cy="204.99" r="8.22"/>
    <circle cx="275.55" cy="204.99" r="8.31"/>
    <circle cx="293.55" cy="204.99" r="5.4"/>
    <circle cx="365.55" cy="204.99" r=".99"/>
    <circle cx="383.55" cy="204.99" r=".68"/>
    <circle cx="23.55" cy="222.99" r="4.2"/>
    <circle cx="41.55" cy="222.99" r="8.29"/>
    <circle cx="59.55" cy="222.99" r="8.55"/>
    <circle cx="77.55" cy="222.99" r="7.63"/>
    <circle cx="95.55" cy="222.99" r="2.23"/>
    <circle cx="329.55" cy="222.99" r="1.16"/>
    <circle cx="347.55" cy="222.99" r="6.83"/>
    <circle cx="365.55" cy="222.99" r="8.55"/>
    <circle cx="383.55" cy="222.99" r="8.5"/>
    <circle cx="401.55" cy="222.99" r="5.59"/>
    <circle cx="5.55" cy="240.99" r="2.78"/>
    <circle cx="23.55" cy="240.99" r="8.55"/>
    <circle cx="41.55" cy="240.99" r="8.55"/>
    <circle cx="59.55" cy="240.99" r="8.55"/>
    <circle cx="77.55" cy="240.99" r="8.55"/>
    <circle cx="95.55" cy="240.99" r="8.04"/>
    <circle cx="113.55" cy="240.99" r=".64"/>
    <circle cx="329.55" cy="240.99" r="6.78"/>
    <circle cx="347.55" cy="240.99" r="8.55"/>
    <circle cx="365.55" cy="240.99" r="8.55"/>
    <circle cx="383.55" cy="240.99" r="8.55"/>
    <circle cx="401.55" cy="240.99" r="8.55"/>
    <circle cx="419.55" cy="240.99" r="4.66"/>
    <circle cx="5.55" cy="258.99" r="5.42"/>
    <circle cx="23.55" cy="258.99" r="8.55"/>
    <circle cx="41.55" cy="258.99" r="8.55"/>
    <circle cx="59.55" cy="258.99" r="8.55"/>
    <circle cx="77.55" cy="258.99" r="8.55"/>
    <circle cx="95.55" cy="258.99" r="8.55"/>
    <circle cx="113.55" cy="258.99" r="2.79"/>
    <circle cx="311.55" cy="258.99" r=".88"/>
    <circle cx="329.55" cy="258.99" r="8.55"/>
    <circle cx="347.55" cy="258.99" r="8.55"/>
    <circle cx="365.55" cy="258.99" r="8.55"/>
    <circle cx="383.55" cy="258.99" r="8.55"/>
    <circle cx="401.55" cy="258.99" r="8.55"/>
    <circle cx="419.55" cy="258.99" r="7.31"/>
    <circle cx="5.55" cy="276.99" r="5"/>
    <circle cx="23.55" cy="276.99" r="8.55"/>
    <circle cx="41.55" cy="276.99" r="8.55"/>
    <circle cx="59.55" cy="276.99" r="8.55"/>
    <circle cx="77.55" cy="276.99" r="8.55"/>
    <circle cx="95.55" cy="276.99" r="8.55"/>
    <circle cx="113.55" cy="276.99" r="2.38"/>
    <circle cx="311.55" cy="276.99" r=".56"/>
    <circle cx="329.55" cy="276.99" r="8.46"/>
    <circle cx="347.55" cy="276.99" r="8.55"/>
    <circle cx="365.55" cy="276.99" r="8.55"/>
    <circle cx="383.55" cy="276.99" r="8.55"/>
    <circle cx="401.55" cy="276.99" r="8.55"/>
    <circle cx="419.55" cy="276.99" r="6.9"/>
    <circle cx="5.55" cy="294.99" r="1.6"/>
    <circle cx="23.55" cy="294.99" r="8.31"/>
    <circle cx="41.55" cy="294.99" r="8.55"/>
    <circle cx="59.55" cy="294.99" r="8.55"/>
    <circle cx="77.55" cy="294.99" r="8.55"/>
    <circle cx="95.55" cy="294.99" r="7.09"/>
    <circle cx="329.55" cy="294.99" r="5.37"/>
    <circle cx="347.55" cy="294.99" r="8.55"/>
    <circle cx="365.55" cy="294.99" r="8.55"/>
    <circle cx="383.55" cy="294.99" r="8.55"/>
    <circle cx="401.55" cy="294.99" r="8.55"/>
    <circle cx="419.55" cy="294.99" r="3.26"/>
    <circle cx="23.55" cy="312.99" r="2.11"/>
    <circle cx="41.55" cy="312.99" r="8.51"/>
    <circle cx="59.55" cy="312.99" r="8.55"/>
    <circle cx="77.55" cy="312.99" r="7.18"/>
    <circle cx="95.55" cy="312.99" r=".82"/>
    <circle cx="347.55" cy="312.99" r="5.85"/>
    <circle cx="365.55" cy="312.99" r="8.55"/>
    <circle cx="383.55" cy="312.99" r="8.55"/>
    <circle cx="401.55" cy="312.99" r="3.98"/>
    <circle cx="23.55" cy="330.99" r="5.55"/>
    <circle cx="41.55" cy="330.99" r="8.55"/>
    <circle cx="59.55" cy="330.99" r="8.55"/>
    <circle cx="77.55" cy="330.99" r="8.31"/>
    <circle cx="95.55" cy="330.99" r="3.27"/>
    <circle cx="329.55" cy="330.99" r="1.88"/>
    <circle cx="347.55" cy="330.99" r="7.82"/>
    <circle cx="365.55" cy="330.99" r="8.55"/>
    <circle cx="383.55" cy="330.99" r="8.55"/>
    <circle cx="401.55" cy="330.99" r="6.86"/>
    <circle cx="419.55" cy="330.99" r=".73"/>
    <circle cx="5.55" cy="348.99" r="3.42"/>
    <circle cx="23.55" cy="348.99" r="8.55"/>
    <circle cx="41.55" cy="348.99" r="8.55"/>
    <circle cx="59.55" cy="348.99" r="8.55"/>
    <circle cx="77.55" cy="348.99" r="8.55"/>
    <circle cx="95.55" cy="348.99" r="8.35"/>
    <circle cx="113.55" cy="348.99" r=".98"/>
    <circle cx="329.55" cy="348.99" r="7.38"/>
    <circle cx="347.55" cy="348.99" r="8.55"/>
    <circle cx="365.55" cy="348.99" r="8.55"/>
    <circle cx="383.55" cy="348.99" r="8.55"/>
    <circle cx="401.55" cy="348.99" r="8.55"/>
    <circle cx="419.55" cy="348.99" r="5.31"/>
    <circle cx="5.55" cy="366.99" r="5.55"/>
    <circle cx="23.55" cy="366.99" r="8.55"/>
    <circle cx="41.55" cy="366.99" r="8.55"/>
    <circle cx="59.55" cy="366.99" r="8.55"/>
    <circle cx="77.55" cy="366.99" r="8.55"/>
    <circle cx="95.55" cy="366.99" r="8.55"/>
    <circle cx="113.55" cy="366.99" r="2.91"/>
    <circle cx="311.55" cy="366.99" r="1.01"/>
    <circle cx="329.55" cy="366.99" r="8.55"/>
    <circle cx="347.55" cy="366.99" r="8.55"/>
    <circle cx="365.55" cy="366.99" r="8.55"/>
    <circle cx="383.55" cy="366.99" r="8.55"/>
    <circle cx="401.55" cy="366.99" r="8.55"/>
    <circle cx="419.55" cy="366.99" r="7.43"/>
    <circle cx="5.55" cy="384.99" r="4.68"/>
    <circle cx="23.55" cy="384.99" r="8.55"/>
    <circle cx="41.55" cy="384.99" r="8.55"/>
    <circle cx="59.55" cy="384.99" r="8.55"/>
    <circle cx="77.55" cy="384.99" r="8.55"/>
    <circle cx="95.55" cy="384.99" r="8.55"/>
    <circle cx="113.55" cy="384.99" r="2.04"/>
    <circle cx="329.55" cy="384.99" r="8.31"/>
    <circle cx="347.55" cy="384.99" r="8.55"/>
    <circle cx="365.55" cy="384.99" r="8.55"/>
    <circle cx="383.55" cy="384.99" r="8.55"/>
    <circle cx="401.55" cy="384.99" r="8.55"/>
    <circle cx="419.55" cy="384.99" r="6.57"/>
    <circle cx="5.55" cy="402.99" r="1.05"/>
    <circle cx="23.55" cy="402.99" r="7.9"/>
    <circle cx="41.55" cy="402.99" r="8.55"/>
    <circle cx="59.55" cy="402.99" r="8.55"/>
    <circle cx="77.55" cy="402.99" r="8.55"/>
    <circle cx="95.55" cy="402.99" r="6.26"/>
    <circle cx="329.55" cy="402.99" r="4.41"/>
    <circle cx="347.55" cy="402.99" r="8.55"/>
    <circle cx="365.55" cy="402.99" r="8.55"/>
    <circle cx="383.55" cy="402.99" r="8.55"/>
    <circle cx="401.55" cy="402.99" r="8.42"/>
    <circle cx="419.55" cy="402.99" r="2.41"/>
    <circle cx="23.55" cy="420.99" r="1.14"/>
    <circle cx="41.55" cy="420.99" r="4.96"/>
    <circle cx="59.55" cy="420.99" r="5.98"/>
    <circle cx="77.55" cy="420.99" r="4.01"/>
    <circle cx="149.55" cy="420.99" r="3.22"/>
    <circle cx="167.55" cy="420.99" r="3.77"/>
    <circle cx="185.55" cy="420.99" r="1.4"/>
    <circle cx="239.55" cy="420.99" r=".79"/>
    <circle cx="257.55" cy="420.99" r="3.5"/>
    <circle cx="275.55" cy="420.99" r="3.6"/>
    <circle cx="293.55" cy="420.99" r=".96"/>
    <circle cx="347.55" cy="420.99" r="3.12"/>
    <circle cx="365.55" cy="420.99" r="5.81"/>
    <circle cx="383.55" cy="420.99" r="5.45"/>
    <circle cx="401.55" cy="420.99" r="1.98"/>
    <circle cx="113.55" cy="438.99" r=".98"/>
    <circle cx="131.55" cy="438.99" r="7.47"/>
    <circle cx="149.55" cy="438.99" r="8.55"/>
    <circle cx="167.55" cy="438.99" r="8.55"/>
    <circle cx="185.55" cy="438.99" r="8.43"/>
    <circle cx="203.55" cy="438.99" r="3.23"/>
    <circle cx="221.55" cy="438.99" r="1.77"/>
    <circle cx="239.55" cy="438.99" r="8.01"/>
    <circle cx="257.55" cy="438.99" r="8.55"/>
    <circle cx="275.55" cy="438.99" r="8.55"/>
    <circle cx="293.55" cy="438.99" r="8.16"/>
    <circle cx="311.55" cy="438.99" r="2.17"/>
    <circle cx="113.55" cy="456.99" r="5.32"/>
    <circle cx="131.55" cy="456.99" r="8.55"/>
    <circle cx="149.55" cy="456.99" r="8.55"/>
    <circle cx="167.55" cy="456.99" r="8.55"/>
    <circle cx="185.55" cy="456.99" r="8.55"/>
    <circle cx="203.55" cy="456.99" r="8.3"/>
    <circle cx="221.55" cy="456.99" r="7.89"/>
    <circle cx="239.55" cy="456.99" r="8.55"/>
    <circle cx="257.55" cy="456.99" r="8.55"/>
    <circle cx="275.55" cy="456.99" r="8.55"/>
    <circle cx="293.55" cy="456.99" r="8.55"/>
    <circle cx="311.55" cy="456.99" r="7.22"/>
    <circle cx="113.55" cy="474.99" r="6.95"/>
    <circle cx="131.55" cy="474.99" r="8.55"/>
    <circle cx="149.55" cy="474.99" r="8.55"/>
    <circle cx="167.55" cy="474.99" r="8.55"/>
    <circle cx="185.55" cy="474.99" r="8.55"/>
    <circle cx="203.55" cy="474.99" r="8.55"/>
    <circle cx="221.55" cy="474.99" r="8.55"/>
    <circle cx="239.55" cy="474.99" r="8.55"/>
    <circle cx="257.55" cy="474.99" r="8.55"/>
    <circle cx="275.55" cy="474.99" r="8.55"/>
    <circle cx="293.55" cy="474.99" r="8.55"/>
    <circle cx="311.55" cy="474.99" r="8.55"/>
    <circle cx="113.55" cy="492.99" r="5.59"/>
    <circle cx="131.55" cy="492.99" r="8.55"/>
    <circle cx="149.55" cy="492.99" r="8.55"/>
    <circle cx="167.55" cy="492.99" r="8.55"/>
    <circle cx="185.55" cy="492.99" r="8.55"/>
    <circle cx="203.55" cy="492.99" r="8.44"/>
    <circle cx="221.55" cy="492.99" r="8.21"/>
    <circle cx="239.55" cy="492.99" r="8.55"/>
    <circle cx="257.55" cy="492.99" r="8.55"/>
    <circle cx="275.55" cy="492.99" r="8.55"/>
    <circle cx="293.55" cy="492.99" r="8.55"/>
    <circle cx="311.55" cy="492.99" r="7.49"/>
    <circle cx="113.55" cy="510.99" r="1.32"/>
    <circle cx="131.55" cy="510.99" r="7.86"/>
    <circle cx="149.55" cy="510.99" r="8.55"/>
    <circle cx="167.55" cy="510.99" r="8.55"/>
    <circle cx="185.55" cy="510.99" r="8.53"/>
    <circle cx="203.55" cy="510.99" r="3.84"/>
    <circle cx="221.55" cy="510.99" r="2.21"/>
    <circle cx="239.55" cy="510.99" r="8.27"/>
    <circle cx="257.55" cy="510.99" r="8.55"/>
    <circle cx="275.55" cy="510.99" r="8.55"/>
    <circle cx="293.55" cy="510.99" r="8.38"/>
    <circle cx="311.55" cy="510.99" r="2.67"/>
    <circle cx="131.55" cy="528.99" r=".83"/>
    <circle cx="149.55" cy="528.99" r="3.97"/>
    <circle cx="167.55" cy="528.99" r="4.52"/>
    <circle cx="185.55" cy="528.99" r="2.05"/>
    <circle cx="239.55" cy="528.99" r="1.27"/>
    <circle cx="257.55" cy="528.99" r="4.24"/>
    <circle cx="275.55" cy="528.99" r="4.34"/>
    <circle cx="293.55" cy="528.99" r="1.49"/>
  </g>
</svg>