<?xml version="1.0" encoding="UTF-8"?>
<svg id="Layer_2" data-name="Layer 2" xmlns="http://www.w3.org/2000/svg" viewBox="0 0 4209.91 1186.2">
  <defs>
    <style>
      .cls-1 {
        fill: none;
        stroke: #fff;
        stroke-miterlimit: 10;
        stroke-width: 200px;
      }

      .cls-2 {
        fill: #fff;
      }
    </style>
  </defs>
  <g id="Layer_1-2" data-name="Layer 1">
    <g>
      <path class="cls-2" d="M1332.86,387.6l-34.8,114.6h-76.2l129.6-404.4h94.2l131.4,404.4h-79.2l-36.6-114.6h-128.4ZM1448.66,331.8l-31.8-99.6c-7.8-24.6-14.4-52.2-20.4-75.6h-1.2c-6,23.4-12,51.6-19.2,75.6l-31.2,99.6h103.8Z"/>
      <path class="cls-2" d="M1633.45,103.2c32.4-5.4,73.8-8.4,117.6-8.4,75.6,0,127.8,15.6,165,46.8,39,31.8,63,79.8,63,148.8s-24.6,126-63,160.8c-40.2,36.6-104.4,55.2-183,55.2-43.2,0-75.6-2.4-99.6-5.4V103.2ZM1707.25,445.8c10.2,1.8,25.8,1.8,40.8,1.8,96,.6,153-52.2,153-154.8.6-89.4-51-140.4-143.4-140.4-23.4,0-40.2,1.8-50.4,4.2v289.2Z"/>
      <path class="cls-2" d="M2133.85,502.2l-130.8-404.4h80.4l55.2,183.6c15.6,51,28.8,98.4,39.6,147.6h1.2c10.8-48,25.2-97.2,41.4-146.4l58.8-184.8h78.6l-139.8,404.4h-84.6Z"/>
      <path class="cls-2" d="M2450.06,387.6l-34.8,114.6h-76.2l129.6-404.4h94.2l131.4,404.4h-79.2l-36.6-114.6h-128.4ZM2565.86,331.8l-31.8-99.6c-7.8-24.6-14.4-52.2-20.4-75.6h-1.2c-6,23.4-12,51.6-19.2,75.6l-31.2,99.6h103.8Z"/>
      <path class="cls-2" d="M2750.65,502.2V97.8h84l104.4,173.4c27,45,50.4,91.8,69,135.6h1.2c-4.8-54-6.6-106.2-6.6-168V97.8h68.4v404.4h-76.2l-105.6-177.6c-25.8-44.4-52.8-94.2-72.6-139.8l-1.8.6c3,52.2,3.6,105.6,3.6,172.2v144.6h-67.8Z"/>
      <path class="cls-2" d="M3446.05,490.2c-17.4,9-55.8,18-104.4,18-128.4,0-206.4-80.4-206.4-203.4,0-133.2,92.4-213.6,216-213.6,48.6,0,83.4,10.2,98.4,18l-16.2,58.8c-19.2-8.4-45.6-15.6-79.2-15.6-82.2,0-141.6,51.6-141.6,148.8,0,88.8,52.2,145.8,141,145.8,30,0,61.2-6,80.4-15l12,58.2Z"/>
      <path class="cls-2" d="M3735.24,322.8h-152.4v118.8h170.4v60.6h-244.2V97.8h235.2v60.6h-161.4v104.4h152.4v60Z"/>
      <path class="cls-2" d="M3818.04,103.2c32.4-5.4,73.8-8.4,117.6-8.4,75.6,0,127.8,15.6,165,46.8,39,31.8,63,79.8,63,148.8s-24.6,126-63,160.8c-40.2,36.6-104.4,55.2-183,55.2-43.2,0-75.6-2.4-99.6-5.4V103.2ZM3891.84,445.8c10.2,1.8,25.8,1.8,40.8,1.8,96,.6,153-52.2,153-154.8.6-89.4-51-140.4-143.4-140.4-23.4,0-40.2,1.8-50.4,4.2v289.2Z"/>
      <path class="cls-2" d="M1331.8,921.6l-34.8,114.6h-76.2l129.6-404.4h94.2l131.4,404.4h-79.2l-36.6-114.6h-128.4ZM1447.6,865.8l-31.8-99.6c-7.8-24.6-14.4-52.2-20.4-75.6h-1.2c-6,23.4-12,51.6-19.2,75.6l-31.2,99.6h103.8Z"/>
      <path class="cls-2" d="M1632.39,1036.2v-404.4h84l104.4,173.4c27,45,50.4,91.8,69,135.6h1.2c-4.8-54-6.6-106.2-6.6-168v-141h68.4v404.4h-76.2l-105.6-177.6c-25.8-44.4-52.8-94.2-72.6-139.8l-1.8.6c3,52.2,3.6,105.6,3.6,172.2v144.6h-67.8Z"/>
      <path class="cls-2" d="M2118.99,921.6l-34.8,114.6h-76.2l129.6-404.4h94.2l131.4,404.4h-79.2l-36.6-114.6h-128.4ZM2234.79,865.8l-31.8-99.6c-7.8-24.6-14.4-52.2-20.4-75.6h-1.2c-6,23.4-12,51.6-19.2,75.6l-31.2,99.6h103.8Z"/>
      <path class="cls-2" d="M2419.58,631.8h73.8v342.6h166.2v61.8h-240v-404.4Z"/>
      <path class="cls-2" d="M2754.99,1036.2v-168.6l-127.8-235.8h84l48.6,103.8c13.8,30,24,52.8,34.8,80.4h1.2c10.2-25.8,21.6-51,35.4-80.4l48.6-103.8h83.4l-134.4,234v170.4h-73.8Z"/>
      <path class="cls-2" d="M3095.18,693.6h-115.2v-61.8h305.4v61.8h-116.4v342.6h-73.8v-342.6Z"/>
      <path class="cls-2" d="M3406.57,631.8v404.4h-73.8v-404.4h73.8Z"/>
      <path class="cls-2" d="M3780.97,1024.2c-17.4,9-55.8,18-104.4,18-128.4,0-206.4-80.4-206.4-203.4,0-133.2,92.4-213.6,216-213.6,48.6,0,83.4,10.2,98.4,18l-16.2,58.8c-19.2-8.4-45.6-15.6-79.2-15.6-82.2,0-141.6,51.6-141.6,148.8,0,88.8,52.2,145.8,141,145.8,30,0,61.2-6,80.4-15l12,58.2Z"/>
      <path class="cls-2" d="M3929.16,921.6l-34.8,114.6h-76.2l129.6-404.4h94.2l131.4,404.4h-79.2l-36.6-114.6h-128.4ZM4044.96,865.8l-31.8-99.6c-7.8-24.6-14.4-52.2-20.4-75.6h-1.2c-6,23.4-12,51.6-19.2,75.6l-31.2,99.6h103.8Z"/>
    </g>
    <g>
      <rect class="cls-2" x="504.79" y="231.96" width="200" height="200"/>
      <path class="cls-1" d="M898.12,523.75c0,150.4,1.88,257.51,1.88,407.91H100V131.66h404.11"/>
      <rect class="cls-2" x="855.24" y="232.12" width="95" height="95"/>
      <polygon class="cls-2" points="854.77 231.17 705.64 230.96 705.64 81.17 855.64 82.58 854.77 231.17"/>
    </g>
  </g>
</svg>